<?xml version="1.0" standalone="no"?>
<!DOCTYPE svg PUBLIC "-//W3C//DTD SVG 20010904//EN"
 "http://www.w3.org/TR/2001/REC-SVG-20010904/DTD/svg10.dtd">
<svg version="1.0" xmlns="http://www.w3.org/2000/svg"
 width="612.000000pt" height="612.000000pt" viewBox="0 0 612.000000 612.000000"
 preserveAspectRatio="xMidYMid meet">
<metadata>
Created by potrace 1.14, written by Peter Selinger 2001-2017
</metadata>
<g transform="translate(0.000000,612.000000) scale(0.100000,-0.100000)"
fill="#000000" stroke="none">
<path d="M2974 5864 c-119 -108 -252 -173 -398 -195 l-75 -11 -43 -87 -43 -86
-251 -5 -251 -5 -54 -49 c-118 -107 -271 -176 -392 -177 -76 -1 -85 -14 -63
-84 37 -119 48 -230 32 -315 -4 -19 -9 -46 -12 -60 -2 -14 -10 -52 -17 -85
-22 -98 -13 -241 26 -412 21 -91 22 -103 8 -104 -49 -2 -191 3 -221 8 -46 7
-147 45 -205 77 -25 14 -54 26 -64 26 -40 0 -43 -18 -37 -272 5 -253 7 -272
33 -403 22 -115 80 -264 145 -375 73 -125 210 -279 316 -354 30 -22 71 -65 94
-100 41 -60 215 -246 231 -246 5 0 15 -7 24 -16 81 -81 404 -239 526 -258 21
-3 22 -9 25 -106 l3 -102 -38 22 c-69 41 -103 60 -241 132 -197 102 -287 151
-337 182 -140 87 -209 141 -287 221 -38 38 -141 180 -154 210 -24 58 -83 87
-128 63 -55 -29 -49 -66 35 -193 85 -127 240 -289 344 -357 92 -60 193 -118
206 -118 6 0 8 -3 6 -8 -3 -4 -87 -6 -187 -5 l-181 2 -57 52 c-31 29 -63 65
-71 80 -13 29 -23 34 -75 43 -55 10 -121 -51 -111 -103 2 -9 4 -21 4 -28 1
-18 50 -63 69 -64 47 -2 62 -10 118 -66 l62 -59 271 0 271 1 0 -25 c1 -14 1
-153 2 -310 1 -156 5 -309 10 -340 28 -182 123 -322 358 -522 91 -79 137 -119
245 -213 13 -11 45 -39 71 -61 27 -23 58 -50 70 -60 12 -11 50 -44 84 -74 35
-30 68 -60 74 -65 6 -6 76 -67 156 -135 80 -69 147 -128 148 -133 3 -7 53 33
152 123 32 29 139 124 180 160 9 8 48 42 85 75 107 95 186 165 235 205 14 12
58 51 99 88 93 84 96 86 167 147 173 147 245 249 290 410 22 78 23 90 23 435
l1 295 267 -1 268 -2 66 65 c53 51 71 64 87 59 28 -9 75 16 90 49 37 81 -17
160 -103 149 -30 -3 -75 -44 -75 -67 0 -7 -12 -21 -27 -32 -15 -11 -40 -32
-57 -48 -34 -30 -27 -29 -280 -28 -71 0 -131 3 -134 5 -3 3 11 12 30 21 104
43 280 167 358 251 69 75 130 151 130 162 0 6 4 12 9 14 17 6 101 147 101 170
-1 64 -82 85 -137 34 -15 -14 -24 -26 -20 -26 5 0 -17 -37 -49 -83 -49 -72
-190 -223 -249 -267 -28 -22 -195 -119 -295 -173 -116 -61 -162 -87 -225 -122
-30 -16 -78 -43 -107 -59 -29 -16 -68 -39 -87 -52 -19 -13 -36 -22 -38 -21 -1
2 -4 49 -5 105 l-3 101 49 11 c106 23 317 123 460 219 87 58 244 214 298 297
31 47 59 75 106 105 130 84 247 223 345 410 40 76 98 230 102 269 1 8 6 31 12
50 6 19 11 42 12 50 0 8 4 50 8 92 7 59 10 423 4 495 -2 26 -50 26 -89 1 -49
-32 -118 -63 -168 -77 -40 -11 -249 -21 -270 -14 -8 3 -5 30 12 91 13 48 27
114 31 147 14 117 6 280 -17 340 -5 14 -7 25 -5 25 2 0 0 12 -6 26 -16 43 -21
158 -8 210 6 27 12 57 15 68 2 10 11 38 20 63 13 33 14 49 6 67 -9 21 -17 23
-64 22 -29 -2 -57 0 -63 3 -5 3 -12 6 -15 6 -104 13 -215 71 -328 174 l-58 52
-245 1 -245 0 -32 83 c-18 46 -41 86 -50 90 -9 4 -37 9 -62 11 -140 16 -313
103 -442 222 -22 20 -45 37 -52 38 -7 1 -43 -27 -82 -62z m144 -172 c70 -63
201 -126 313 -150 l84 -18 40 -80 c91 -180 121 -272 132 -394 l6 -65 -57 78
c-31 44 -62 85 -69 92 -75 82 -134 134 -197 177 -98 67 -288 162 -319 160 -30
-2 -221 -98 -297 -148 -95 -63 -201 -174 -291 -304 l-44 -65 2 60 c4 88 44
206 138 406 40 86 40 86 83 93 125 19 279 94 372 180 l39 37 26 -23 c14 -13
31 -29 39 -36z m-758 -362 c0 -3 -6 -14 -13 -25 -8 -11 -22 -44 -32 -72 -12
-32 -25 -53 -34 -54 -63 -3 -72 -8 -147 -89 -23 -25 -66 -70 -96 -101 -183
-192 -315 -334 -327 -353 -13 -21 -7 -35 67 -177 103 -198 110 -219 87 -269
-10 -22 -15 -49 -12 -62 3 -13 8 -34 11 -48 3 -14 8 -34 10 -45 19 -85 96
-244 172 -352 66 -94 224 -249 314 -308 70 -46 255 -144 283 -149 6 -2 19 -6
27 -9 33 -13 134 -36 141 -31 4 2 17 -16 28 -40 22 -51 85 -120 119 -130 12
-4 22 -15 23 -24 0 -9 2 -92 2 -184 l2 -167 -23 15 c-50 33 -123 74 -132 74
-4 0 -10 4 -12 8 -1 4 -32 26 -68 47 -74 45 -236 153 -295 199 -116 89 -302
277 -416 421 -68 85 -229 324 -229 339 0 2 -16 33 -36 68 -102 180 -203 460
-228 633 -20 148 -20 161 20 320 18 71 24 217 13 309 l-4 38 75 22 c114 34
186 75 280 162 35 32 35 32 138 30 56 0 102 1 102 4 0 3 43 5 95 5 52 0 95 -2
95 -5z m820 -52 c81 -42 142 -83 134 -90 -3 -3 -31 0 -62 7 -171 40 -237 38
-437 -10 l-30 -7 30 28 c17 16 71 48 120 72 50 24 97 46 105 51 16 9 44 -1
140 -51z m1004 6 c87 -75 187 -132 277 -157 l80 -22 -7 -35 c-16 -87 -12 -193
14 -309 36 -167 36 -240 -2 -415 -18 -83 -75 -263 -100 -319 -47 -104 -109
-229 -135 -272 -16 -27 -39 -68 -51 -90 -25 -46 -117 -178 -150 -215 -12 -14
-38 -45 -58 -70 -57 -71 -341 -351 -406 -400 -113 -86 -172 -126 -306 -210
-74 -46 -150 -95 -168 -108 -18 -14 -35 -22 -38 -19 -4 3 -6 84 -5 179 l1 173
27 20 c63 47 122 122 108 137 -12 12 36 37 99 52 375 92 743 422 850 761 50
160 53 188 23 237 -8 13 -8 27 2 55 21 56 99 218 138 286 23 39 33 66 29 81
-7 30 -67 96 -311 344 -171 173 -214 212 -232 209 -33 -6 -48 10 -69 73 -10
30 -22 60 -26 66 -4 6 -5 14 -2 17 4 3 86 5 184 4 l177 -3 57 -50z m-1074
-209 c43 -9 64 -14 105 -25 22 -6 69 -13 105 -16 99 -8 94 -2 87 -102 -6 -96
-32 -169 -75 -214 -34 -37 -42 -35 -32 7 13 59 -15 131 -74 190 -158 157 -410
54 -411 -167 0 -32 -3 -58 -7 -58 -12 0 -57 65 -79 116 -29 63 -35 224 -10
224 82 2 170 14 241 34 47 13 94 22 105 20 11 -2 31 -6 45 -9z m-827 -184 c5
-134 5 -134 -24 -186 -44 -78 -60 -139 -66 -257 -6 -109 9 -251 29 -275 6 -7
8 -13 5 -13 -3 0 3 -23 14 -52 10 -28 17 -54 15 -56 -6 -5 -216 97 -217 106 0
4 -2 25 -4 47 -4 63 -97 282 -151 359 -20 29 -17 49 9 72 12 11 103 104 201
207 99 103 180 186 181 184 2 -1 5 -62 8 -136z m1872 -195 c44 -48 81 -91 83
-96 2 -4 -20 -50 -47 -101 -54 -102 -109 -241 -115 -294 -3 -19 -7 -39 -11
-45 -7 -12 -206 -113 -211 -107 -2 2 3 21 12 43 81 191 73 484 -15 623 -28 43
-29 51 -26 121 3 41 5 102 5 135 l1 60 122 -125 c67 -69 158 -165 202 -214z
m-541 141 c14 -29 27 -71 31 -93 7 -45 8 -177 0 -214 -25 -127 -130 -287 -237
-363 -81 -57 -133 -83 -237 -118 -46 -16 -89 -33 -96 -39 -10 -8 -21 -7 -42 3
-15 8 -59 24 -98 37 -72 23 -196 85 -236 117 -104 84 -198 229 -225 348 -15
62 -15 166 0 235 19 88 64 189 77 169 4 -7 6 -16 3 -21 -7 -12 25 -127 50
-177 17 -33 25 -70 29 -134 8 -145 73 -250 207 -336 131 -85 249 -93 384 -26
97 48 173 122 217 211 29 59 34 79 36 155 2 65 8 96 22 121 25 42 51 140 51
191 l0 40 20 -26 c12 -14 31 -50 44 -80z m-528 2 c63 -19 91 -79 66 -141 -27
-66 -120 -81 -173 -29 -23 23 -29 38 -29 72 0 34 6 47 34 74 37 34 54 38 102
24z m-96 -342 c39 -16 101 -14 146 4 33 13 173 18 181 6 6 -10 -34 -65 -72
-100 -40 -36 -124 -76 -177 -83 -36 -5 -54 0 -110 29 -38 20 -76 43 -85 53
-33 32 -73 87 -73 98 0 16 147 11 190 -7z m791 -102 c3 -88 -20 -193 -66 -300
-7 -16 -24 -58 -37 -93 -22 -61 -25 -64 -88 -96 -119 -61 -388 -228 -432 -268
-7 -7 -21 -17 -30 -23 -9 -5 -30 -20 -46 -33 -25 -18 -33 -20 -44 -9 -36 35
-170 133 -223 163 -11 7 -94 54 -184 106 l-165 95 -33 79 c-75 176 -94 244
-99 349 l-4 100 22 -55 c52 -125 102 -202 183 -285 96 -96 161 -137 305 -194
76 -30 119 -54 155 -86 27 -25 55 -45 62 -45 6 0 31 18 55 41 43 41 91 70 138
84 34 10 174 75 180 83 3 4 17 13 31 21 46 23 158 131 198 190 43 64 83 146
102 209 7 23 14 41 15 39 2 -2 4 -34 5 -72z m-2681 -320 c8 -2 36 -11 61 -19
30 -9 96 -14 194 -15 82 -1 152 -4 156 -6 3 -3 14 -28 24 -57 51 -158 245
-487 397 -674 102 -127 116 -142 235 -261 160 -158 399 -332 706 -512 59 -35
108 -66 108 -70 4 -17 4 -331 1 -331 -14 0 -200 192 -215 221 -19 39 -39 49
-97 49 -86 -1 -127 -112 -64 -173 24 -23 26 -23 72 -26 20 -1 61 -35 167 -137
l140 -136 0 -760 c0 -418 -3 -762 -8 -765 -4 -2 -30 19 -57 46 l-51 51 1 710
c2 788 6 739 -64 746 -36 4 -76 -24 -76 -54 0 -9 0 -302 0 -651 l0 -634 -20
18 c-19 17 -20 30 -20 179 1 89 4 179 9 201 16 87 -21 133 -100 122 -60 -8
-86 -57 -67 -125 12 -42 17 -233 6 -230 -4 2 -44 36 -88 77 l-80 73 0 134 0
133 44 20 c106 46 168 157 162 286 -3 58 -9 74 -42 122 -87 127 -210 170 -344
122 -39 -14 -49 -21 -95 -67 -56 -55 -70 -96 -70 -197 0 -73 4 -98 22 -130 26
-50 71 -97 125 -132 24 -15 45 -31 48 -35 6 -8 4 -118 -3 -124 -2 -2 -34 25
-70 61 -91 90 -144 184 -163 290 -10 55 -11 645 -2 652 8 4 86 -35 273 -137
95 -51 170 -111 211 -167 30 -41 44 -53 65 -53 42 0 70 29 74 77 5 48 -9 69
-97 152 l-58 55 0 327 c0 326 0 328 -22 353 -18 19 -36 26 -78 31 -167 16
-242 66 -425 280 -32 39 -66 77 -75 86 -21 22 -57 65 -104 122 -35 45 -37 50
-26 77 16 39 7 118 -18 159 -66 109 -226 129 -309 38 -42 -47 -46 -54 -50
-113 -10 -124 87 -227 208 -220 46 3 49 2 91 -48 327 -386 442 -484 616 -526
l52 -12 0 -60 0 -60 -29 5 c-50 10 -192 70 -282 120 -158 86 -278 192 -381
337 -34 47 -78 93 -118 123 -142 106 -226 202 -301 343 -62 118 -105 234 -124
334 -13 70 -17 117 -20 250 -4 139 -3 151 13 145 9 -4 24 -8 32 -10z m3955
-137 c-3 -142 -6 -182 -21 -263 -9 -51 -43 -158 -65 -205 -12 -25 -28 -61 -37
-80 -20 -44 -70 -127 -97 -160 -41 -51 -154 -157 -220 -205 -39 -28 -83 -72
-102 -100 -54 -81 -177 -209 -261 -272 -42 -32 -119 -80 -170 -106 -100 -52
-268 -118 -277 -109 -3 3 -5 32 -5 64 0 48 3 58 17 58 37 0 161 55 228 101 83
57 158 131 305 299 30 35 66 75 79 89 13 14 35 40 50 56 23 27 33 30 86 31 92
2 168 48 195 118 6 16 10 53 9 83 -5 128 -125 215 -249 181 -55 -15 -112 -66
-131 -116 -13 -33 -13 -108 -1 -142 9 -24 -4 -44 -103 -156 -5 -6 -39 -44 -75
-84 -108 -122 -203 -216 -245 -243 -49 -31 -149 -66 -213 -73 -28 -3 -56 -14
-69 -26 -23 -21 -23 -22 -23 -357 l0 -335 -62 -60 c-35 -33 -71 -71 -80 -85
-34 -50 -14 -120 40 -136 17 -5 29 1 53 27 88 93 109 112 170 153 74 48 309
181 340 190 19 6 20 1 19 -297 -2 -331 -9 -397 -56 -491 -36 -71 -94 -142
-172 -211 l-22 -19 0 70 0 71 43 22 c58 30 104 76 135 135 35 68 37 178 5 247
-46 95 -156 168 -257 168 -80 0 -142 -26 -200 -85 -68 -67 -91 -128 -84 -224
8 -109 58 -182 164 -241 l48 -26 2 -127 1 -127 -75 -67 c-42 -38 -81 -74 -89
-81 -19 -19 -18 172 1 219 16 40 14 61 -9 95 -33 50 -108 53 -146 5 -18 -22
-20 -34 -14 -86 11 -104 8 -365 -6 -381 -6 -8 -14 -12 -17 -9 -3 3 -7 294 -9
647 -2 525 -6 645 -17 656 -7 7 -31 16 -53 19 -34 4 -41 2 -56 -21 -16 -23
-17 -85 -16 -729 l1 -704 -56 -59 -56 -59 0 405 c0 223 -1 563 -1 755 0 193 0
359 0 370 1 11 58 74 139 152 118 115 141 133 167 131 45 -2 69 9 88 41 26 45
22 103 -9 135 -22 21 -36 26 -76 26 -40 0 -53 -5 -73 -26 -14 -15 -25 -32 -25
-39 0 -6 -23 -31 -52 -56 -29 -24 -74 -65 -100 -91 -27 -27 -51 -48 -53 -48
-3 0 -5 72 -5 160 l0 160 83 53 c45 30 145 93 222 142 183 116 241 159 389
285 87 75 291 289 357 375 13 17 26 32 29 35 15 12 144 199 190 275 56 93 147
281 176 363 l18 52 150 1 c83 0 164 3 180 5 22 4 118 35 133 43 0 1 0 -68 -2
-151z m-2810 -57 c127 -68 202 -108 275 -149 25 -14 70 -38 100 -55 30 -17 67
-38 82 -49 14 -10 31 -18 36 -18 6 0 12 -3 14 -7 2 -5 44 -35 94 -68 l92 -59
-45 -51 c-25 -27 -49 -60 -54 -72 -10 -26 -25 -25 -131 13 -65 23 -205 90
-218 104 -3 3 -37 26 -76 52 -76 51 -213 184 -251 244 -39 60 -101 172 -107
191 l-7 23 38 -18 c21 -9 92 -46 158 -81z m1809 77 c-43 -139 -196 -325 -359
-436 -87 -60 -248 -142 -277 -142 -10 0 -18 -5 -18 -12 0 -6 -3 -9 -6 -5 -4 3
-23 -1 -43 -9 -63 -27 -71 -26 -87 12 -8 19 -30 52 -49 73 l-34 38 24 21 c14
12 28 22 31 22 3 0 31 17 62 39 53 36 226 140 402 242 41 24 118 64 170 89 52
25 113 56 135 68 51 27 58 27 49 0z m-2479 -594 c27 -30 25 -61 -6 -86 -26
-22 -38 -22 -67 -2 -30 21 -30 77 0 98 31 22 45 20 73 -10z m3041 5 c21 -17
17 -65 -8 -89 -25 -23 -32 -24 -58 -10 -35 19 -43 46 -25 84 14 30 21 34 47
31 16 -3 36 -10 44 -16z m-1510 -44 c87 -57 39 -198 -63 -182 -90 15 -115 131
-40 185 34 23 64 23 103 -3z m-735 -1726 c35 -25 69 -87 69 -127 0 -15 -12
-46 -26 -68 -43 -66 -116 -86 -179 -51 -79 45 -105 124 -65 195 43 76 134 99
201 51z m1516 6 c56 -34 83 -110 63 -171 -30 -90 -134 -125 -217 -74 -31 20
-63 82 -63 121 0 53 45 116 100 141 27 13 84 4 117 -17z"/>
<path d="M1235 3790 c-58 -23 -65 -113 -10 -138 38 -18 55 -15 81 13 17 19 22
33 18 61 -7 54 -45 82 -89 64z"/>
<path d="M1430 3768 c-44 -48 -12 -121 55 -127 72 -5 94 97 31 141 -21 15 -66
8 -86 -14z"/>
<path d="M2607 2099 c-49 -38 -11 -140 47 -123 37 10 59 45 52 83 -6 41 -13
48 -48 55 -18 3 -36 -2 -51 -15z"/>
<path d="M4823 3783 c-34 -18 -43 -30 -43 -66 0 -35 40 -77 73 -77 60 0 95 74
58 121 -26 34 -53 40 -88 22z"/>
<path d="M4594 3782 c-25 -17 -43 -57 -37 -81 9 -35 27 -51 66 -58 25 -4 37 0
52 17 27 29 27 94 0 114 -21 16 -63 20 -81 8z"/>
<path d="M3415 2095 c-28 -26 -31 -45 -13 -78 27 -51 75 -53 111 -5 17 23 18
31 7 57 -11 27 -30 40 -67 47 -7 1 -24 -9 -38 -21z"/>
<path d="M2264 1540 c-28 -11 -37 -26 -36 -61 1 -58 67 -86 114 -50 32 26 32
71 0 101 -23 21 -44 24 -78 10z"/>
<path d="M3772 1534 c-41 -29 -25 -102 27 -119 39 -12 91 26 85 63 -1 6 -2 17
-3 22 -2 19 -41 50 -64 50 -12 0 -33 -7 -45 -16z"/>
<path d="M1190 1922 c-41 -13 -67 -71 -48 -106 20 -38 50 -57 82 -52 38 6 74
46 71 78 -1 12 -3 29 -4 35 -2 26 -69 56 -101 45z"/>
<path d="M4841 1899 c-37 -40 -14 -125 36 -130 7 -1 19 -2 26 -3 35 -6 69 29
75 76 7 64 -92 105 -137 57z"/>
<path d="M1425 1679 c-11 -6 -32 -24 -46 -40 -22 -24 -26 -38 -26 -83 0 -119
92 -183 194 -135 33 16 45 29 58 64 18 45 15 107 -5 146 -27 49 -124 75 -175
48z"/>
<path d="M4530 1650 c-22 -22 -41 -50 -42 -62 0 -13 -2 -30 -3 -38 -2 -22 22
-89 37 -104 66 -66 184 -48 226 34 32 62 16 138 -37 182 -23 20 -41 26 -85 27
-53 1 -58 -1 -96 -39z"/>
</g>
</svg>
