<svg width="119" height="40" viewBox="0 0 119 40" fill="none" xmlns="http://www.w3.org/2000/svg">
<path d="M56.1126 8.51458C50.5635 8.51458 46.0488 13.0293 46.0488 18.576C46.0488 24.1227 50.5635 28.6374 56.1126 28.6374C59.619 28.6374 62.7126 26.8319 64.5133 24.1037V28.8793C64.5133 33.5127 60.7435 37.28 56.1126 37.28C52.1649 37.28 48.7961 34.5968 47.9207 30.7535C47.8186 30.3075 47.375 30.0276 46.9266 30.1296C46.4806 30.2316 46.2007 30.6776 46.3027 31.1236C47.3513 35.7261 51.3867 38.9407 56.1126 38.9407C61.6617 38.9407 66.174 34.426 66.174 28.8793V17.7765C66.174 17.665 66.1502 17.5582 66.1099 17.4609C65.5524 12.4362 61.2821 8.51221 56.1102 8.51221L56.1126 8.51458ZM56.1126 26.979C51.4793 26.979 47.7095 23.2093 47.7095 18.5783C47.7095 13.9474 51.4793 10.1776 56.1126 10.1776C60.7459 10.1776 64.5133 13.9474 64.5133 18.5783C64.5133 23.2093 60.7435 26.979 56.1126 26.979Z" fill="#576164"/>
<path d="M118.843 17.4633C118.286 12.4386 114.015 8.51459 108.844 8.51459C103.295 8.51459 98.7822 13.0293 98.7822 18.576C98.7822 24.1227 103.297 28.6374 108.844 28.6374C112.35 28.6374 115.444 26.832 117.244 24.1037V26.9814C117.244 27.4393 117.617 27.8118 118.075 27.8118C118.533 27.8118 118.905 27.4393 118.905 26.9814V17.7765C118.905 17.665 118.881 17.5582 118.841 17.4609L118.843 17.4633ZM108.844 26.979C104.21 26.979 100.443 23.2093 100.443 18.5783C100.443 13.9474 104.213 10.1776 108.844 10.1776C113.475 10.1776 117.244 13.9474 117.244 18.5783C117.244 23.2093 113.475 26.979 108.844 26.979Z" fill="#576164"/>
<path fill-rule="evenodd" clip-rule="evenodd" d="M69.748 18.6045C69.748 13.0578 74.2604 8.54308 79.8094 8.54308V8.54071C84.9813 8.54071 89.2516 12.4647 89.8091 17.4894C89.8495 17.5867 89.8732 17.6935 89.8732 17.805V27.0099C89.8732 27.4678 89.5007 27.8403 89.0428 27.8403C88.585 27.8403 88.2125 27.4678 88.2125 27.0099V24.1322C86.4095 26.8605 83.3182 28.6659 79.8094 28.6659C74.2627 28.6659 69.748 24.1512 69.748 18.6045ZM71.4087 18.6068C71.4087 23.2378 75.1761 27.0075 79.8094 27.0075C84.4427 27.0075 88.2125 23.2378 88.2125 18.6068C88.2125 13.9759 84.4404 10.2061 79.8094 10.2061C75.1785 10.2061 71.4087 13.9759 71.4087 18.6068ZM93.824 10.097C93.824 9.63912 94.1964 9.26665 94.6543 9.26665C95.1122 9.26665 95.4847 9.63912 95.4847 10.097V27.0123C95.4847 27.4701 95.1122 27.8426 94.6543 27.8426C94.1964 27.8426 93.824 27.4701 93.824 27.0123V10.097Z" fill="url(#paint0_linear_2907_195)"/>
<path d="M27.7026 4.68432L22.1464 1.47682C18.7349 -0.492275 14.4978 -0.492275 11.0886 1.47682L5.53246 4.68432C2.11856 6.65342 0 10.3235 0 14.2617V20.6791C0 24.6173 2.11856 28.2874 5.53009 30.2565L11.0863 33.464C12.5216 34.292 14.1348 34.7854 15.786 34.9112V39.1697C15.786 39.6275 16.1585 40 16.6164 40C17.0742 40 17.4467 39.6275 17.4467 39.1697V26.622L26.4049 20.7242C26.7869 20.4727 26.8936 19.9579 26.6422 19.5736C26.3907 19.1892 25.8735 19.0848 25.4915 19.3363L17.4467 24.6315V10.0649C17.4467 9.60707 17.0742 9.2346 16.6164 9.2346C16.1585 9.2346 15.786 9.60707 15.786 10.0649V17.5333L9.69604 13.5239C9.31408 13.2724 8.79927 13.3768 8.54542 13.7612C8.29394 14.1431 8.39833 14.6603 8.78266 14.9118L15.786 19.5214V33.1841C14.4385 33.0631 13.1218 32.6479 11.9475 31.9718L6.39127 28.7643C3.51117 27.1012 1.72237 24.0028 1.72237 20.6767V14.2594C1.72237 10.9332 3.51117 7.83488 6.39127 6.17182L11.9475 2.96432C14.8276 1.30127 18.4051 1.30127 21.2853 2.96432L26.8414 6.17182C29.7215 7.83488 31.5103 10.9332 31.5103 14.2594V20.6767C31.5103 24.0028 29.7215 27.1012 26.8414 28.7643L23.5129 30.6859C23.1025 30.9232 22.9602 31.4498 23.1974 31.8603C23.4347 32.2707 23.9613 32.413 24.3718 32.1758L27.7002 30.2541C31.1118 28.285 33.2303 24.6149 33.2303 20.6767V14.2594C33.2303 10.3212 31.1118 6.65105 27.7002 4.68195L27.7026 4.68432Z" fill="url(#paint1_linear_2907_195)"/>
<defs>
<linearGradient id="paint0_linear_2907_195" x1="69.748" y1="28.6659" x2="95.6377" y2="28.467" gradientUnits="userSpaceOnUse">
<stop stop-color="#2BB673"/>
<stop offset="1" stop-color="#8DC63F"/>
</linearGradient>
<linearGradient id="paint1_linear_2907_195" x1="0" y1="40" x2="33.4291" y2="39.8332" gradientUnits="userSpaceOnUse">
<stop stop-color="#2BB673"/>
<stop offset="1" stop-color="#8DC63F"/>
</linearGradient>
</defs>
</svg>
