<?xml version="1.0" encoding="UTF-8"?>
<svg id="Layer_2" xmlns="http://www.w3.org/2000/svg" viewBox="0 0 580.35 248.02">
  <g id="primary_logo_expanded">
    <g>
      <g>
        <path d="M111.39,88.15c-1.88-4.13-6.76-5.95-10.89-4.07-4.13,1.88-5.95,6.76-4.07,10.89,1.01,2.22,2.89,3.76,5.05,4.43l5.72,12.55-11.13-2.88c-1.04-2.01-2.88-3.59-5.25-4.2-4.4-1.14-8.88,1.51-10.02,5.9-1.14,4.4,1.51,8.88,5.9,10.02,2.36.61,4.74.12,6.62-1.13l8.78,2.27-7.97,4.33c-2.13-.76-4.56-.66-6.7.5-3.99,2.17-5.47,7.16-3.3,11.15,2.17,3.99,7.16,5.47,11.15,3.3,2.14-1.16,3.55-3.15,4.07-5.35l7.98-4.33-2.88,8.61c-2.08.89-3.78,2.63-4.56,4.94-1.44,4.31.88,8.97,5.19,10.41,4.31,1.44,8.97-.88,10.41-5.19.77-2.31.45-4.72-.67-6.69l2.88-8.6,3.76,8.26c-.91,2.07-.97,4.5.04,6.72,1.88,4.13,6.76,5.95,10.89,4.07,4.13-1.88,5.95-6.76,4.07-10.89-1.01-2.22-2.89-3.76-5.05-4.43l-4.77-10.46,13.35,3.45c1.04,2.01,2.88,3.59,5.24,4.2,4.4,1.14,8.88-1.51,10.02-5.9,1.14-4.4-1.51-8.88-5.9-10.02-2.36-.61-4.74-.12-6.63,1.13l-11.01-2.85,10-5.43c2.13.76,4.56.66,6.7-.5,3.99-2.17,5.47-7.16,3.3-11.15-2.17-3.99-7.16-5.47-11.15-3.3-2.14,1.16-3.55,3.14-4.07,5.34l-10,5.43,3.61-10.79c2.08-.89,3.78-2.63,4.56-4.94,1.44-4.31-.88-8.97-5.19-10.41-4.31-1.44-8.97.88-10.41,5.19-.77,2.31-.45,4.72.67,6.69l-3.61,10.79-4.72-10.35c.91-2.07.98-4.5-.04-6.72Z"/>
        <path d="M33.73,157c-1.69,1.51-2.75,3.69-2.75,6.13,0,4.54,3.68,8.22,8.22,8.22s8.22-3.68,8.22-8.22c0-2.44-1.07-4.62-2.76-6.13v-13.91l-30.19-31.57v-40.9l18.75-19.61c2.26.08,4.54-.76,6.23-2.52,3.14-3.28,3.02-8.49-.26-11.63-3.28-3.14-8.49-3.02-11.63.26-1.69,1.76-2.42,4.08-2.25,6.33L3.54,66.24v49.67l30.19,31.56v9.53Z"/>
        <path d="M32.72,72.99c-3.91,2.31-5.2,7.36-2.88,11.27,2.31,3.91,7.36,5.2,11.27,2.88,2.1-1.24,3.43-3.28,3.87-5.5l11.97-7.09,11.76-42.06,35.19-20.85,26.43,6.14c1.09,1.98,2.97,3.52,5.35,4.07,4.42,1.03,8.84-1.73,9.87-6.15,1.03-4.42-1.73-8.84-6.15-9.87-2.38-.55-4.75,0-6.59,1.3L102.09,0l-42.74,25.32-11.76,42.06-8.2,4.86c-2.16-.68-4.58-.49-6.68.75Z"/>
        <path d="M237.28,89.96c-.66-2.35-2.28-4.16-4.31-5.16l-8.53-30.34-42.77-25.27-42.53,9.94-8.21-4.85c-.44-2.22-1.78-4.25-3.88-5.49-3.91-2.31-8.95-1.01-11.26,2.9-2.31,3.91-1.01,8.95,2.9,11.26,2.1,1.24,4.52,1.43,6.68.75l11.98,7.08,42.53-9.94,35.21,20.8,7.34,26.12c-1.22,1.91-1.65,4.3-.99,6.64,1.23,4.37,5.77,6.92,10.14,5.69,4.37-1.23,6.92-5.77,5.69-10.14Z"/>
        <path d="M203.12,89.48c1.7-1.5,2.78-3.67,2.79-6.11.03-4.54-3.63-8.25-8.17-8.28-4.54-.03-8.25,3.63-8.28,8.17-.02,2.44,1.04,4.63,2.72,6.15l-.09,13.92,29.99,31.76-.26,40.89-18.88,19.49c-2.26-.09-4.55.73-6.24,2.49-3.16,3.26-3.08,8.47.18,11.63,3.26,3.16,8.47,3.08,11.63-.18,1.7-1.75,2.45-4.06,2.29-6.32l21.93-22.64.32-49.67-29.99-31.75.06-9.53Z"/>
        <path d="M198.04,177.03c-1.63-4.24-6.39-6.35-10.63-4.73-2.28.87-3.93,2.66-4.73,4.77l-12.99,4.99-18.63,39.5-38.18,14.67-25.03-10.47c-.74-2.14-2.34-3.97-4.59-4.91-4.19-1.75-9.01.22-10.76,4.41-1.75,4.19.22,9.01,4.41,10.76,2.25.94,4.68.8,6.72-.18l29.07,12.17,46.37-17.82,18.63-39.5,8.89-3.42c2.01,1.03,4.43,1.25,6.71.37,4.24-1.63,6.35-6.39,4.73-10.63Z"/>
        <path d="M100.64,212.58c.22,2.25,1.36,4.4,3.33,5.84,3.67,2.67,8.81,1.87,11.49-1.8,2.67-3.67,1.87-8.81-1.8-11.49-1.97-1.44-4.37-1.86-6.58-1.38l-11.24-8.2-43.29,5.81-33.05-24.09-4.8-26.71c1.39-1.78,2.06-4.12,1.63-6.52-.8-4.47-5.08-7.44-9.55-6.64-4.47.8-7.44,5.08-6.64,9.55.43,2.4,1.87,4.36,3.8,5.54l5.58,31.02,40.14,29.25,43.29-5.81,7.7,5.61Z"/>
      </g>
      <g>
        <path d="M272.69,113.3v-59.09h30.41c4.25,0,7.91.62,10.97,1.87,3.06,1.24,5.42,3.13,7.06,5.65,1.64,2.52,2.46,5.72,2.46,9.61,0,2.67-.44,4.93-1.32,6.78-.88,1.85-2.08,3.38-3.6,4.6-1.52,1.21-3.31,2.16-5.37,2.82-2.06.67-4.28,1.09-6.65,1.27l-.64-.55c3.58.12,6.59.52,9.01,1.18,2.43.67,4.29,1.87,5.6,3.6,1.3,1.73,1.96,4.3,1.96,7.69v14.57h-8.83v-14.3c0-2.37-.4-4.22-1.18-5.55-.79-1.33-2.16-2.28-4.1-2.82-1.94-.55-4.67-.82-8.19-.82h-18.85v23.49h-8.74ZM281.43,82.16h21.67c3.88,0,6.81-.97,8.79-2.91,1.97-1.94,2.96-4.49,2.96-7.65s-.99-5.37-2.96-7.01c-1.97-1.64-4.9-2.46-8.79-2.46h-21.67v20.03Z"/>
        <path d="M355.91,114.3c-4.43,0-8.5-.94-12.2-2.82-3.7-1.88-6.65-4.58-8.83-8.1-2.19-3.52-3.28-7.74-3.28-12.66s1.09-9.24,3.28-12.79c2.19-3.55,5.13-6.27,8.83-8.15,3.7-1.88,7.77-2.82,12.2-2.82s8.47.94,12.11,2.82c3.64,1.88,6.56,4.6,8.74,8.15,2.19,3.55,3.28,7.82,3.28,12.79s-1.09,9.14-3.28,12.66c-2.18,3.52-5.1,6.22-8.74,8.1-3.64,1.88-7.68,2.82-12.11,2.82ZM355.91,106.75c2.73,0,5.26-.62,7.6-1.87,2.34-1.24,4.22-3.06,5.65-5.46,1.43-2.4,2.14-5.3,2.14-8.7s-.71-6.4-2.14-8.83c-1.43-2.43-3.31-4.28-5.65-5.55-2.34-1.27-4.87-1.91-7.6-1.91s-5.28.62-7.65,1.87c-2.37,1.24-4.28,3.08-5.74,5.51-1.46,2.43-2.18,5.4-2.18,8.92s.71,6.3,2.14,8.7c1.43,2.4,3.32,4.22,5.69,5.46,2.37,1.24,4.95,1.87,7.74,1.87Z"/>
        <path d="M388.05,54.21h52.9v7.83l-44.52,46.16-1.18-2.73h45.71v7.83h-52.9v-7.83l44.62-46.16,1.18,2.73h-45.8v-7.83Z"/>
        <path d="M486.39,98.55h8.29c-.49,2.97-1.64,5.65-3.46,8.01-1.82,2.37-4.22,4.25-7.19,5.65-2.98,1.4-6.46,2.09-10.47,2.09-4.73,0-8.95-1-12.66-3-3.7-2-6.62-4.76-8.74-8.29-2.12-3.52-3.19-7.62-3.19-12.29s1.03-8.88,3.1-12.43c2.06-3.55,4.92-6.33,8.56-8.33,3.64-2,7.8-3,12.47-3,4.92,0,9.04.97,12.38,2.91,3.34,1.94,5.81,4.81,7.42,8.6,1.61,3.79,2.26,8.51,1.96,14.16h-37.24c.3,2.73,1.14,5.16,2.5,7.28,1.37,2.13,3.19,3.79,5.46,5.01,2.28,1.21,4.9,1.82,7.88,1.82,3.34,0,6.13-.76,8.38-2.28,2.25-1.52,3.76-3.49,4.55-5.92ZM473.19,74.42c-3.95,0-7.22,1.05-9.83,3.14-2.61,2.09-4.34,4.87-5.19,8.33h27.95c-.24-3.7-1.58-6.54-4.01-8.51-2.43-1.97-5.4-2.96-8.92-2.96Z"/>
        <path d="M503.14,67.87h8.74v45.44h-8.74v-45.44ZM527.27,75.61c-3.16,0-5.84.73-8.06,2.19-2.22,1.46-3.98,3.25-5.28,5.37-1.31,2.13-2.17,4.16-2.59,6.1l-.09-5.19c.06-.61.23-1.56.5-2.87.27-1.3.77-2.78,1.5-4.42.73-1.64,1.7-3.2,2.91-4.69,1.21-1.49,2.73-2.72,4.55-3.69,1.82-.97,4.01-1.46,6.56-1.46v8.65Z"/>
        <path d="M556.23,114.3c-4.43,0-8.5-.94-12.2-2.82-3.7-1.88-6.65-4.58-8.83-8.1-2.18-3.52-3.28-7.74-3.28-12.66s1.09-9.24,3.28-12.79c2.19-3.55,5.13-6.27,8.83-8.15,3.7-1.88,7.77-2.82,12.2-2.82s8.47.94,12.11,2.82c3.64,1.88,6.56,4.6,8.74,8.15,2.19,3.55,3.28,7.82,3.28,12.79s-1.09,9.14-3.28,12.66c-2.18,3.52-5.1,6.22-8.74,8.1-3.64,1.88-7.68,2.82-12.11,2.82ZM556.23,106.75c2.73,0,5.26-.62,7.6-1.87,2.34-1.24,4.22-3.06,5.65-5.46,1.43-2.4,2.14-5.3,2.14-8.7s-.71-6.4-2.14-8.83c-1.43-2.43-3.31-4.28-5.65-5.55-2.34-1.27-4.87-1.91-7.6-1.91s-5.28.62-7.65,1.87c-2.37,1.24-4.28,3.08-5.74,5.51-1.46,2.43-2.18,5.4-2.18,8.92s.71,6.3,2.14,8.7c1.43,2.4,3.32,4.22,5.69,5.46,2.37,1.24,4.95,1.87,7.74,1.87Z"/>
        <path d="M281.43,130.83v51.26h34.78v7.83h-43.52v-59.09h8.74Z"/>
        <path d="M344.26,190.84c-3.89,0-7.44-1-10.65-3-3.22-2-5.77-4.78-7.65-8.33-1.88-3.55-2.82-7.63-2.82-12.25s.96-8.7,2.87-12.25,4.54-6.34,7.88-8.38c3.34-2.03,7.07-3.05,11.2-3.05,4.55,0,8.09,1.06,10.61,3.19,2.52,2.12,4.28,4.98,5.28,8.56,1,3.58,1.5,7.56,1.5,11.93,0,2.43-.3,5.01-.91,7.74-.61,2.73-1.58,5.31-2.91,7.74-1.34,2.43-3.19,4.39-5.55,5.87s-5.31,2.23-8.83,2.23ZM346.72,183.28c3.22,0,5.93-.71,8.15-2.14,2.21-1.42,3.87-3.35,4.96-5.78,1.09-2.43,1.64-5.13,1.64-8.1,0-3.22-.56-6.04-1.69-8.47-1.12-2.43-2.79-4.31-5.01-5.64-2.21-1.33-4.9-2-8.06-2-4.74,0-8.39,1.52-10.97,4.55-2.58,3.04-3.87,6.89-3.87,11.56,0,3.16.64,5.93,1.91,8.33,1.27,2.4,3.02,4.28,5.24,5.65,2.21,1.37,4.78,2.05,7.69,2.05ZM361.47,144.49h8.74v45.44h-8.01c-.24-2.25-.43-4.16-.55-5.74-.12-1.58-.18-2.97-.18-4.19v-35.51Z"/>
        <path d="M389.97,126.28v53.72c0,1.4-.08,3.07-.23,5.01-.15,1.94-.29,3.58-.41,4.92h-8.01v-63.65h8.65ZM407.27,190.84c-3.58,0-6.54-.74-8.88-2.23s-4.19-3.44-5.55-5.87c-1.37-2.43-2.35-5.01-2.96-7.74-.61-2.73-.91-5.31-.91-7.74,0-3.28.29-6.34.87-9.2.58-2.85,1.53-5.37,2.87-7.56,1.33-2.19,3.19-3.88,5.55-5.1,2.37-1.21,5.37-1.82,9.01-1.82,4.07,0,7.69,1.02,10.88,3.05,3.19,2.03,5.69,4.83,7.51,8.38,1.82,3.55,2.73,7.63,2.73,12.25s-.94,8.7-2.82,12.25c-1.88,3.55-4.42,6.33-7.6,8.33-3.19,2-6.75,3-10.7,3ZM404.81,183.28c2.91,0,5.48-.68,7.69-2.05,2.22-1.37,3.95-3.25,5.19-5.65,1.24-2.4,1.87-5.17,1.87-8.33,0-4.67-1.29-8.53-3.87-11.56-2.58-3.03-6.21-4.55-10.88-4.55-3.16,0-5.84.67-8.06,2-2.22,1.34-3.9,3.22-5.05,5.64-1.15,2.43-1.73,5.25-1.73,8.47,0,2.97.56,5.68,1.68,8.1,1.12,2.43,2.79,4.36,5.01,5.78,2.21,1.43,4.93,2.14,8.15,2.14Z"/>
        <path d="M434.49,175.18h8.01c.3,2.43,1.4,4.42,3.28,5.96,1.88,1.55,4.52,2.32,7.92,2.32,2.19,0,3.88-.26,5.1-.77,1.21-.52,2.08-1.23,2.59-2.14.51-.91.77-1.91.77-3,0-1.4-.36-2.47-1.09-3.23-.73-.76-1.76-1.4-3.1-1.91-1.34-.52-2.91-1.02-4.73-1.5-2-.55-4.01-1.18-6.01-1.91s-3.84-1.61-5.51-2.64c-1.67-1.03-3-2.32-4.01-3.87-1-1.55-1.5-3.45-1.5-5.69,0-1.88.41-3.64,1.23-5.28.82-1.64,2-3.05,3.55-4.23s3.35-2.09,5.42-2.73c2.06-.64,4.34-.96,6.83-.96,3.46,0,6.37.62,8.74,1.87,2.37,1.25,4.17,2.99,5.42,5.24,1.24,2.25,1.9,4.83,1.96,7.74h-7.65c-.42-2.55-1.31-4.42-2.64-5.6-1.34-1.18-3.34-1.78-6.01-1.78s-4.61.52-6.01,1.55c-1.4,1.03-2.09,2.43-2.09,4.19,0,1.34.49,2.41,1.46,3.23.97.82,2.28,1.53,3.92,2.14,1.64.61,3.49,1.25,5.55,1.91,1.94.67,3.81,1.35,5.6,2.05,1.79.7,3.4,1.52,4.83,2.46,1.43.94,2.55,2.16,3.37,3.64.82,1.49,1.23,3.32,1.23,5.51,0,2.67-.67,4.99-2,6.97-1.34,1.97-3.26,3.5-5.78,4.6-2.52,1.09-5.57,1.64-9.15,1.64-3.28,0-6.05-.4-8.33-1.18-2.28-.79-4.19-1.82-5.74-3.1-1.55-1.27-2.73-2.62-3.55-4.05-.82-1.42-1.37-2.81-1.64-4.14-.27-1.33-.35-2.43-.23-3.28Z"/>
      </g>
    </g>
  </g>
</svg>