<?xml version="1.0" encoding="UTF-8"?>
<svg id="Layer_2" xmlns="http://www.w3.org/2000/svg" viewBox="0 0 674.37 248.02">
  <g id="primary_logo_-_expanded">
    <g>
      <g>
        <path d="M111.39,88.15c-1.88-4.13-6.76-5.95-10.89-4.07-4.13,1.88-5.95,6.76-4.07,10.89,1.01,2.22,2.89,3.76,5.05,4.43l5.72,12.55-11.13-2.88c-1.04-2.01-2.88-3.59-5.25-4.2-4.4-1.14-8.88,1.51-10.02,5.9-1.14,4.4,1.51,8.88,5.9,10.02,2.36.61,4.74.12,6.62-1.13l8.78,2.27-7.97,4.33c-2.13-.76-4.56-.66-6.7.5-3.99,2.17-5.47,7.16-3.3,11.15,2.17,3.99,7.16,5.47,11.15,3.3,2.14-1.16,3.55-3.15,4.07-5.35l7.98-4.33-2.88,8.61c-2.08.89-3.78,2.63-4.56,4.94-1.44,4.31.88,8.97,5.19,10.41,4.31,1.44,8.97-.88,10.41-5.19.77-2.31.45-4.72-.67-6.69l2.88-8.6,3.76,8.26c-.91,2.07-.97,4.5.04,6.72,1.88,4.13,6.76,5.95,10.89,4.07,4.13-1.88,5.95-6.76,4.07-10.89-1.01-2.22-2.89-3.76-5.05-4.43l-4.77-10.46,13.35,3.45c1.04,2.01,2.88,3.59,5.24,4.2,4.4,1.14,8.88-1.51,10.02-5.9,1.14-4.4-1.51-8.88-5.9-10.02-2.36-.61-4.74-.12-6.63,1.13l-11.01-2.85,10-5.43c2.13.76,4.56.66,6.7-.5,3.99-2.17,5.47-7.16,3.3-11.15-2.17-3.99-7.16-5.47-11.15-3.3-2.14,1.16-3.55,3.14-4.07,5.34l-10,5.43,3.61-10.79c2.08-.89,3.78-2.63,4.56-4.94,1.44-4.31-.88-8.97-5.19-10.41-4.31-1.44-8.97.88-10.41,5.19-.77,2.31-.45,4.72.67,6.69l-3.61,10.79-4.72-10.35c.91-2.07.98-4.5-.04-6.72Z"/>
        <path d="M33.73,157c-1.69,1.51-2.75,3.69-2.75,6.13,0,4.54,3.68,8.22,8.22,8.22s8.22-3.68,8.22-8.22c0-2.44-1.07-4.62-2.76-6.13v-13.91l-30.19-31.57v-40.9l18.75-19.61c2.26.08,4.54-.76,6.23-2.52,3.14-3.28,3.02-8.49-.26-11.63-3.28-3.14-8.49-3.02-11.63.26-1.69,1.76-2.42,4.08-2.25,6.33L3.54,66.24v49.67l30.19,31.56v9.53Z"/>
        <path d="M32.72,72.99c-3.91,2.31-5.2,7.36-2.88,11.27,2.31,3.91,7.36,5.2,11.27,2.88,2.1-1.24,3.43-3.28,3.87-5.5l11.97-7.09,11.76-42.06,35.19-20.85,26.43,6.14c1.09,1.98,2.97,3.52,5.35,4.07,4.42,1.03,8.84-1.73,9.87-6.15,1.03-4.42-1.73-8.84-6.15-9.87-2.38-.55-4.75,0-6.59,1.3L102.09,0l-42.74,25.32-11.76,42.06-8.2,4.86c-2.16-.68-4.58-.49-6.68.75Z"/>
        <path d="M237.28,89.96c-.66-2.35-2.28-4.16-4.31-5.16l-8.53-30.34-42.77-25.27-42.53,9.94-8.21-4.85c-.44-2.22-1.78-4.25-3.88-5.49-3.91-2.31-8.95-1.01-11.26,2.9-2.31,3.91-1.01,8.95,2.9,11.26,2.1,1.24,4.52,1.43,6.68.75l11.98,7.08,42.53-9.94,35.21,20.8,7.34,26.12c-1.22,1.91-1.65,4.3-.99,6.64,1.23,4.37,5.77,6.92,10.14,5.69,4.37-1.23,6.92-5.77,5.69-10.14Z"/>
        <path d="M203.12,89.48c1.7-1.5,2.78-3.67,2.79-6.11.03-4.54-3.63-8.25-8.17-8.28-4.54-.03-8.25,3.63-8.28,8.17-.02,2.44,1.04,4.63,2.72,6.15l-.09,13.92,29.99,31.76-.26,40.89-18.88,19.49c-2.26-.09-4.55.73-6.24,2.49-3.16,3.26-3.08,8.47.18,11.63,3.26,3.16,8.47,3.08,11.63-.18,1.7-1.75,2.45-4.06,2.29-6.32l21.93-22.64.32-49.67-29.99-31.75.06-9.53Z"/>
        <path d="M198.04,177.03c-1.63-4.24-6.39-6.35-10.63-4.73-2.28.87-3.93,2.66-4.73,4.77l-12.99,4.99-18.63,39.5-38.18,14.67-25.03-10.47c-.74-2.14-2.34-3.97-4.59-4.91-4.19-1.75-9.01.22-10.76,4.41-1.75,4.19.22,9.01,4.41,10.76,2.25.94,4.68.8,6.72-.18l29.07,12.17,46.37-17.82,18.63-39.5,8.89-3.42c2.01,1.03,4.43,1.25,6.71.37,4.24-1.63,6.35-6.39,4.73-10.63Z"/>
        <path d="M100.64,212.58c.22,2.25,1.36,4.4,3.33,5.84,3.67,2.67,8.81,1.87,11.49-1.8,2.67-3.67,1.87-8.81-1.8-11.49-1.97-1.44-4.37-1.86-6.58-1.38l-11.24-8.2-43.29,5.81-33.05-24.09-4.8-26.71c1.39-1.78,2.06-4.12,1.63-6.52-.8-4.47-5.08-7.44-9.55-6.64-4.47.8-7.44,5.08-6.64,9.55.43,2.4,1.87,4.36,3.8,5.54l5.58,31.02,40.14,29.25,43.29-5.81,7.7,5.61Z"/>
      </g>
      <g>
        <path d="M304.89,113.03v-55.53h28.58c3.99,0,7.43.59,10.31,1.75,2.88,1.17,5.09,2.94,6.63,5.31,1.54,2.37,2.31,5.38,2.31,9.03,0,2.51-.41,4.64-1.24,6.37-.83,1.74-1.95,3.18-3.38,4.32-1.43,1.14-3.11,2.03-5.05,2.65-1.94.63-4.02,1.03-6.25,1.2l-.6-.51c3.37.12,6.19.49,8.47,1.11,2.28.63,4.04,1.75,5.26,3.38,1.23,1.63,1.84,4.04,1.84,7.23v13.69h-8.3v-13.43c0-2.22-.37-3.96-1.11-5.22-.74-1.25-2.03-2.14-3.85-2.65-1.83-.51-4.39-.77-7.7-.77h-17.71v22.08h-8.21ZM313.11,83.77h20.37c3.65,0,6.4-.91,8.26-2.74,1.85-1.83,2.78-4.22,2.78-7.19s-.93-5.05-2.78-6.59c-1.85-1.54-4.61-2.31-8.26-2.31h-20.37v18.82Z"/>
        <path d="M383.1,113.97c-4.17,0-7.99-.89-11.47-2.65-3.48-1.77-6.25-4.31-8.3-7.62-2.05-3.31-3.08-7.27-3.08-11.89s1.03-8.69,3.08-12.02c2.05-3.34,4.82-5.89,8.3-7.66,3.48-1.77,7.3-2.65,11.47-2.65s7.96.89,11.38,2.65c3.42,1.77,6.16,4.32,8.21,7.66,2.05,3.34,3.08,7.35,3.08,12.02s-1.03,8.59-3.08,11.89c-2.05,3.31-4.79,5.85-8.21,7.62-3.42,1.77-7.22,2.65-11.38,2.65ZM383.1,106.87c2.57,0,4.95-.58,7.14-1.75,2.2-1.17,3.96-2.88,5.31-5.13,1.34-2.25,2.01-4.98,2.01-8.17s-.67-6.02-2.01-8.3c-1.34-2.28-3.11-4.02-5.31-5.22-2.2-1.2-4.58-1.8-7.14-1.8s-4.96.59-7.19,1.75c-2.22,1.17-4.02,2.9-5.39,5.18-1.37,2.28-2.05,5.08-2.05,8.39s.67,5.92,2.01,8.17c1.34,2.25,3.12,3.97,5.35,5.13,2.22,1.17,4.65,1.75,7.27,1.75Z"/>
        <path d="M411.59,99.17h7.53c.28,2.28,1.31,4.15,3.08,5.6,1.77,1.45,4.25,2.18,7.44,2.18,2.05,0,3.65-.24,4.79-.73,1.14-.48,1.95-1.15,2.44-2.01.48-.86.73-1.8.73-2.82,0-1.31-.34-2.32-1.03-3.04-.68-.71-1.65-1.31-2.91-1.8-1.25-.48-2.74-.95-4.45-1.41-1.88-.51-3.76-1.11-5.65-1.8-1.88-.68-3.61-1.51-5.18-2.48-1.57-.97-2.82-2.18-3.76-3.64s-1.41-3.24-1.41-5.35c0-1.77.38-3.42,1.16-4.96.77-1.54,1.88-2.87,3.34-3.98,1.46-1.11,3.15-1.97,5.09-2.57,1.94-.6,4.08-.9,6.42-.9,3.25,0,5.99.59,8.21,1.75,2.22,1.17,3.92,2.81,5.09,4.92,1.17,2.11,1.78,4.54,1.84,7.27h-7.19c-.4-2.4-1.23-4.15-2.48-5.26-1.26-1.11-3.14-1.67-5.65-1.67s-4.34.49-5.65,1.45c-1.31.97-1.97,2.28-1.97,3.94,0,1.26.46,2.27,1.37,3.04.91.77,2.14,1.44,3.68,2.01,1.54.57,3.28,1.17,5.22,1.8,1.83.63,3.58,1.27,5.26,1.93,1.68.66,3.19,1.43,4.54,2.31,1.34.89,2.4,2.03,3.17,3.42.77,1.4,1.16,3.12,1.16,5.18,0,2.51-.63,4.69-1.88,6.55-1.25,1.85-3.07,3.29-5.43,4.32-2.37,1.03-5.23,1.54-8.6,1.54-3.08,0-5.69-.37-7.83-1.11-2.14-.74-3.94-1.71-5.39-2.91-1.46-1.2-2.57-2.47-3.34-3.81-.77-1.34-1.28-2.64-1.54-3.89-.26-1.25-.33-2.28-.21-3.08Z"/>
        <path d="M486.55,99.17h7.79c-.46,2.8-1.54,5.31-3.25,7.53s-3.97,3.99-6.76,5.31c-2.8,1.31-6.08,1.97-9.84,1.97-4.45,0-8.42-.94-11.89-2.82-3.48-1.88-6.22-4.48-8.21-7.79-2-3.31-3-7.16-3-11.55s.97-8.34,2.91-11.68c1.94-3.34,4.62-5.95,8.04-7.83,3.42-1.88,7.33-2.82,11.72-2.82,4.62,0,8.5.91,11.64,2.74,3.14,1.83,5.46,4.52,6.97,8.09,1.51,3.57,2.12,8,1.84,13.31h-35c.29,2.57,1.07,4.85,2.35,6.85,1.28,2,2.99,3.57,5.13,4.71,2.14,1.14,4.61,1.71,7.4,1.71,3.14,0,5.76-.71,7.87-2.14,2.11-1.43,3.54-3.28,4.28-5.56ZM474.14,76.49c-3.71,0-6.79.98-9.24,2.95-2.45,1.97-4.08,4.58-4.88,7.83h26.27c-.23-3.48-1.48-6.15-3.76-8-2.28-1.85-5.08-2.78-8.39-2.78Z"/>
        <path d="M574.6,94.03c-.51,4.17-1.92,7.73-4.24,10.7-2.31,2.97-5.32,5.25-9.03,6.85-3.71,1.6-7.93,2.4-12.66,2.4-4.28,0-8.2-.66-11.77-1.97-3.57-1.31-6.66-3.19-9.28-5.65-2.62-2.45-4.68-5.46-6.16-9.03-1.48-3.56-2.22-7.57-2.22-12.02s.74-8.53,2.22-12.06c1.48-3.54,3.54-6.55,6.16-9.03s5.72-4.38,9.28-5.69c3.56-1.31,7.49-1.97,11.77-1.97,4.79,0,9.04.81,12.75,2.44,3.71,1.63,6.72,3.94,9.03,6.93,2.31,2.99,3.72,6.58,4.24,10.74h-7.87c-.74-2.68-1.97-4.96-3.68-6.85-1.71-1.88-3.79-3.32-6.25-4.32-2.45-1-5.19-1.5-8.21-1.5-3.88,0-7.42.83-10.61,2.48-3.2,1.65-5.75,4.05-7.66,7.19-1.91,3.14-2.87,7.02-2.87,11.64s.95,8.43,2.87,11.59c1.91,3.17,4.46,5.56,7.66,7.19,3.19,1.63,6.73,2.44,10.61,2.44,3.02,0,5.75-.48,8.17-1.45,2.42-.97,4.49-2.4,6.2-4.28,1.71-1.88,2.97-4.14,3.77-6.76h7.79Z"/>
        <path d="M593.42,52.71v8.81h-10.18v-8.81h10.18ZM584.27,70.33h8.13v42.7h-8.13v-42.7Z"/>
        <path d="M600.09,70.33h27.64v7.1h-27.64v-7.1ZM609.85,59.04h8.13v53.99h-8.13v-53.99Z"/>
        <path d="M630.81,70.33h8.73l16.34,40.99-7.1,1.71-17.97-42.7ZM674.37,70.33l-25.58,59.81h-8.64l11.04-23.19,14.55-36.62h8.64Z"/>
        <path d="M304.89,185.04v-55.53h28.58c3.99,0,7.43.59,10.31,1.75,2.88,1.17,5.09,2.94,6.63,5.31,1.54,2.37,2.31,5.38,2.31,9.03,0,2.51-.41,4.63-1.24,6.38-.83,1.74-1.95,3.18-3.38,4.32-1.43,1.14-3.11,2.03-5.05,2.65-1.94.63-4.02,1.03-6.25,1.2l-.6-.51c3.37.11,6.19.49,8.47,1.11,2.28.63,4.04,1.75,5.26,3.38,1.23,1.63,1.84,4.04,1.84,7.23v13.69h-8.3v-13.43c0-2.23-.37-3.96-1.11-5.22-.74-1.25-2.03-2.14-3.85-2.65-1.83-.51-4.39-.77-7.7-.77h-17.71v22.08h-8.21ZM313.11,155.78h20.37c3.65,0,6.4-.91,8.26-2.74,1.85-1.83,2.78-4.22,2.78-7.19s-.93-5.05-2.78-6.59c-1.85-1.54-4.61-2.31-8.26-2.31h-20.37v18.83Z"/>
        <path d="M383.1,185.98c-4.17,0-7.99-.88-11.47-2.65-3.48-1.77-6.25-4.31-8.3-7.62-2.05-3.31-3.08-7.27-3.08-11.89s1.03-8.68,3.08-12.02c2.05-3.34,4.82-5.89,8.3-7.66,3.48-1.77,7.3-2.65,11.47-2.65s7.96.88,11.38,2.65c3.42,1.77,6.16,4.32,8.21,7.66,2.05,3.34,3.08,7.35,3.08,12.02s-1.03,8.59-3.08,11.89c-2.05,3.31-4.79,5.85-8.21,7.62-3.42,1.77-7.22,2.65-11.38,2.65ZM383.1,178.88c2.57,0,4.95-.58,7.14-1.75,2.2-1.17,3.96-2.88,5.31-5.13,1.34-2.25,2.01-4.98,2.01-8.17s-.67-6.02-2.01-8.3c-1.34-2.28-3.11-4.02-5.31-5.22-2.2-1.2-4.58-1.8-7.14-1.8s-4.96.59-7.19,1.75c-2.22,1.17-4.02,2.9-5.39,5.18-1.37,2.28-2.05,5.08-2.05,8.39s.67,5.92,2.01,8.17c1.34,2.25,3.12,3.97,5.35,5.13,2.22,1.17,4.65,1.75,7.27,1.75Z"/>
        <path d="M423.06,125.23v50.48c0,1.31-.07,2.88-.21,4.71-.14,1.83-.27,3.37-.38,4.62h-7.53v-59.81h8.13ZM439.32,185.89c-3.37,0-6.15-.7-8.34-2.1-2.2-1.4-3.94-3.24-5.22-5.52-1.28-2.28-2.21-4.71-2.78-7.27-.57-2.57-.86-4.99-.86-7.27,0-3.08.27-5.96.81-8.64.54-2.68,1.44-5.05,2.7-7.1,1.25-2.05,3-3.65,5.22-4.79,2.22-1.14,5.05-1.71,8.47-1.71,3.82,0,7.23.96,10.23,2.87,3,1.91,5.35,4.54,7.06,7.87,1.71,3.34,2.57,7.17,2.57,11.51s-.89,8.17-2.65,11.51c-1.77,3.34-4.15,5.95-7.14,7.83-3,1.88-6.35,2.82-10.05,2.82ZM437.01,178.79c2.74,0,5.15-.64,7.23-1.93,2.08-1.28,3.71-3.05,4.88-5.3,1.17-2.25,1.75-4.86,1.75-7.83,0-4.39-1.21-8.01-3.64-10.87s-5.83-4.28-10.22-4.28c-2.97,0-5.49.63-7.57,1.88-2.08,1.26-3.67,3.02-4.75,5.31-1.08,2.28-1.63,4.93-1.63,7.96,0,2.8.53,5.33,1.58,7.62,1.06,2.28,2.62,4.09,4.71,5.43,2.08,1.34,4.63,2.01,7.66,2.01Z"/>
        <path d="M487.41,185.98c-4.17,0-7.99-.88-11.47-2.65-3.48-1.77-6.25-4.31-8.3-7.62-2.05-3.31-3.08-7.27-3.08-11.89s1.03-8.68,3.08-12.02c2.05-3.34,4.82-5.89,8.3-7.66,3.48-1.77,7.3-2.65,11.47-2.65s7.96.88,11.38,2.65c3.42,1.77,6.16,4.32,8.21,7.66,2.05,3.34,3.08,7.35,3.08,12.02s-1.03,8.59-3.08,11.89c-2.05,3.31-4.79,5.85-8.21,7.62s-7.22,2.65-11.38,2.65ZM487.41,178.88c2.57,0,4.95-.58,7.14-1.75,2.2-1.17,3.96-2.88,5.31-5.13,1.34-2.25,2.01-4.98,2.01-8.17s-.67-6.02-2.01-8.3c-1.34-2.28-3.11-4.02-5.31-5.22-2.2-1.2-4.58-1.8-7.14-1.8s-4.96.59-7.19,1.75c-2.23,1.17-4.02,2.9-5.39,5.18-1.37,2.28-2.05,5.08-2.05,8.39s.67,5.92,2.01,8.17c1.34,2.25,3.12,3.97,5.35,5.13,2.22,1.17,4.65,1.75,7.27,1.75Z"/>
        <path d="M514.78,142.34h27.64v7.1h-27.64v-7.1ZM524.54,131.05h8.13v53.99h-8.13v-53.99Z"/>
        <path d="M559.19,124.71v8.81h-10.18v-8.81h10.18ZM550.04,142.34h8.13v42.7h-8.13v-42.7Z"/>
        <path d="M610.71,168.78c-.34,3.54-1.47,6.6-3.38,9.2-1.91,2.6-4.41,4.58-7.49,5.95-3.08,1.37-6.5,2.05-10.27,2.05-4.16,0-7.99-.87-11.47-2.61-3.48-1.74-6.26-4.28-8.34-7.62-2.08-3.34-3.12-7.32-3.12-11.94s1.04-8.68,3.12-12.02c2.08-3.34,4.86-5.89,8.34-7.66,3.48-1.77,7.3-2.65,11.47-2.65,3.77,0,7.16.68,10.18,2.05,3.02,1.37,5.5,3.32,7.44,5.86,1.94,2.54,3.11,5.58,3.51,9.11h-7.44c-.97-3.08-2.7-5.52-5.18-7.32s-5.32-2.7-8.51-2.7c-2.62,0-5.06.6-7.32,1.8-2.25,1.2-4.05,2.92-5.39,5.18-1.34,2.25-2.01,5.04-2.01,8.34s.67,5.92,2.01,8.17c1.34,2.25,3.12,3.97,5.35,5.13,2.22,1.17,4.68,1.75,7.36,1.75,3.65,0,6.62-.88,8.9-2.65,2.28-1.77,3.91-4.25,4.88-7.44h7.36Z"/>
        <path d="M616.52,171.18h7.53c.29,2.28,1.31,4.15,3.08,5.61,1.77,1.45,4.25,2.18,7.44,2.18,2.05,0,3.65-.24,4.79-.73,1.14-.48,1.95-1.16,2.44-2.01.48-.86.73-1.8.73-2.82,0-1.31-.34-2.32-1.03-3.04-.68-.71-1.66-1.31-2.91-1.8-1.26-.48-2.74-.96-4.45-1.41-1.88-.51-3.76-1.11-5.65-1.8-1.88-.68-3.61-1.51-5.18-2.48-1.57-.97-2.82-2.18-3.76-3.64-.94-1.45-1.41-3.24-1.41-5.35,0-1.77.39-3.42,1.16-4.96.77-1.54,1.88-2.87,3.34-3.98,1.46-1.11,3.15-1.97,5.09-2.57,1.94-.6,4.08-.9,6.42-.9,3.25,0,5.99.59,8.21,1.75,2.22,1.17,3.92,2.81,5.09,4.92,1.17,2.11,1.78,4.54,1.84,7.27h-7.19c-.4-2.4-1.23-4.15-2.48-5.26-1.26-1.11-3.14-1.67-5.65-1.67s-4.34.49-5.65,1.45c-1.31.97-1.97,2.28-1.97,3.94,0,1.26.46,2.27,1.37,3.04.91.77,2.14,1.44,3.68,2.01,1.54.57,3.28,1.17,5.22,1.8,1.83.63,3.58,1.27,5.26,1.92,1.68.66,3.19,1.43,4.54,2.31,1.34.88,2.4,2.03,3.17,3.42.77,1.4,1.16,3.12,1.16,5.18,0,2.51-.63,4.69-1.88,6.55-1.25,1.85-3.07,3.29-5.43,4.32-2.37,1.03-5.23,1.54-8.6,1.54-3.08,0-5.69-.37-7.83-1.11-2.14-.74-3.94-1.71-5.39-2.91-1.46-1.2-2.57-2.47-3.34-3.81-.77-1.34-1.28-2.64-1.54-3.89-.26-1.25-.33-2.28-.21-3.08Z"/>
      </g>
    </g>
  </g>
</svg>