<?xml version="1.0" standalone="no"?>
<svg xmlns="http://www.w3.org/2000/svg" viewBox="0 0 543 543">
  <path d="M 270,45 L 267,48 L 263,63 L 255,76 L 255,80 L 259,79 L 260,82 L 244,103 L 259,101 L 248,116 L 233,130 L 235,133 L 252,132 L 220,166 L 224,170 L 245,170 L 206,211 L 210,216 L 240,215 L 224,234 L 194,263 L 198,268 L 227,266 L 230,268 L 189,303 L 184,310 L 191,315 L 225,314 L 180,357 L 181,362 L 187,364 L 222,361 L 181,398 L 181,401 L 185,404 L 201,401 L 201,405 L 206,411 L 210,411 L 227,401 L 233,410 L 239,411 L 254,402 L 254,458 L 252,469 L 247,479 L 226,494 L 225,497 L 313,497 L 312,493 L 293,479 L 288,468 L 286,456 L 287,397 L 297,406 L 309,410 L 314,406 L 317,396 L 328,402 L 333,402 L 341,395 L 339,389 L 346,392 L 355,391 L 360,388 L 361,382 L 316,344 L 351,344 L 360,341 L 361,338 L 314,296 L 337,297 L 353,294 L 354,290 L 308,248 L 341,248 L 347,242 L 300,196 L 325,197 L 332,195 L 332,190 L 294,153 L 317,153 L 320,149 L 294,123 L 294,119 L 300,122 L 308,121 L 308,119 L 285,95 L 283,91 L 294,91 L 294,89 L 284,79 Z"/>
</svg>
