<?xml version="1.0" standalone="no"?>
<!DOCTYPE svg PUBLIC "-//W3C//DTD SVG 20010904//EN"
 "http://www.w3.org/TR/2001/REC-SVG-20010904/DTD/svg10.dtd">
<svg version="1.0" xmlns="http://www.w3.org/2000/svg"
 width="361.000000pt" height="361.000000pt" viewBox="0 0 361.000000 361.000000"
 preserveAspectRatio="xMidYMid meet">
<metadata>
Created by potrace 1.14, written by Peter Selinger 2001-2017
</metadata>
<g transform="translate(0.000000,361.000000) scale(0.100000,-0.100000)"
fill="#000000" stroke="none">
<path d="M1256 3429 c-164 -98 -304 -183 -311 -191 -7 -7 -29 -74 -50 -148
-20 -74 -44 -160 -53 -190 -9 -30 -16 -57 -17 -60 0 -3 -14 -51 -30 -108 l-29
-103 -57 -34 c-39 -24 -69 -35 -95 -35 -149 0 -165 -208 -19 -236 46 -8 103
20 123 63 11 24 39 47 101 84 l86 51 50 176 c27 97 50 182 52 187 35 137 71
250 83 256 8 5 56 33 105 62 248 149 385 227 398 227 12 0 87 -17 242 -54 6
-2 38 -9 72 -16 45 -9 67 -19 77 -35 8 -13 28 -27 43 -32 25 -8 40 -9 86 -4
21 2 63 45 74 76 32 94 -53 182 -147 154 -42 -13 -49 -12 -255 36 -60 14 -137
32 -170 39 l-60 12 -299 -177z"/>
<path d="M1832 3202 c-13 -2 -38 -18 -56 -36 -27 -28 -33 -41 -33 -80 -1 -40
4 -52 32 -81 18 -19 41 -35 51 -36 67 -4 84 -8 129 -34 28 -15 62 -36 77 -46
14 -11 33 -19 41 -19 8 0 131 27 273 61 143 33 266 62 274 64 8 2 27 6 41 10
22 5 68 -18 275 -140 137 -81 252 -150 257 -154 4 -4 30 -86 57 -183 44 -157
49 -182 43 -241 -6 -66 -6 -66 30 -102 33 -33 52 -40 106 -35 53 4 101 59 101
115 0 32 -24 79 -49 97 -13 9 -37 78 -81 234 -55 196 -65 221 -88 235 -15 9
-155 91 -311 184 l-285 168 -245 -57 c-277 -65 -260 -61 -324 -75 -44 -10 -52
-9 -95 15 -60 34 -70 41 -85 72 -23 47 -78 74 -135 64z"/>
<path d="M535 3103 c-34 -9 -63 -33 -80 -69 -9 -19 -14 -38 -11 -43 5 -8 -17
-32 -216 -241 -60 -62 -98 -110 -99 -123 0 -12 -1 -176 -1 -365 l-1 -344 60
-61 c66 -68 228 -238 320 -334 l59 -62 -2 -63 c0 -40 -8 -79 -22 -107 -41 -88
11 -175 104 -174 98 2 152 105 98 188 -12 18 -16 50 -16 123 l1 98 -137 144
c-75 79 -174 182 -219 229 l-83 86 0 298 0 298 73 75 c39 41 99 104 133 140
33 35 66 64 73 64 7 0 28 7 47 16 62 29 84 111 48 173 -23 38 -85 64 -129 54z"/>
<path d="M2915 2511 c-78 -23 -110 -114 -65 -185 16 -27 19 -46 16 -117 -2
-46 0 -91 3 -100 5 -15 129 -149 354 -383 l77 -81 -1 -296 -2 -296 -136 -141
c-103 -106 -144 -142 -168 -147 -19 -4 -45 -21 -64 -42 -28 -33 -31 -41 -26
-87 4 -42 10 -55 37 -78 39 -32 61 -37 113 -24 43 10 74 44 82 90 5 23 48 75
165 196 l159 165 1 255 c1 140 2 304 2 364 l0 109 -74 76 c-69 71 -132 137
-292 306 l-66 70 0 65 c0 46 6 77 20 105 25 49 25 81 0 122 -29 47 -83 69
-135 54z"/>
<path d="M1857 2396 c-45 -31 -59 -62 -53 -124 3 -38 -2 -70 -19 -120 l-23
-67 -30 66 c-22 49 -30 80 -29 116 2 60 -21 99 -69 119 -101 42 -199 -54 -158
-155 8 -21 27 -45 43 -54 27 -16 46 -49 92 -154 l17 -41 -74 20 c-50 14 -84
30 -102 48 -76 75 -205 24 -205 -81 0 -70 56 -124 125 -122 22 1 45 6 51 11 8
6 34 3 71 -7 l60 -17 -46 -26 c-28 -16 -68 -27 -103 -30 -46 -4 -62 -10 -87
-36 -53 -52 -42 -148 22 -185 58 -35 128 -17 168 43 24 37 130 105 119 77 -3
-8 -11 -34 -18 -57 -7 -23 -22 -49 -34 -58 -55 -44 -68 -96 -40 -156 30 -63
108 -84 170 -46 42 26 55 60 53 140 -2 42 3 77 14 100 l16 35 25 -55 c16 -37
23 -66 20 -88 -20 -131 162 -188 223 -70 26 51 14 106 -35 148 -25 22 -51 60
-70 100 -16 36 -28 66 -27 67 7 8 184 -50 196 -65 55 -67 167 -55 204 23 45
94 -39 193 -141 166 -21 -6 -48 -9 -58 -6 -11 3 -45 11 -75 18 -30 7 -50 16
-45 19 75 46 129 68 165 68 55 0 96 25 114 71 24 61 7 117 -47 149 -61 37
-139 14 -172 -50 -9 -18 -31 -38 -48 -46 -18 -8 -47 -23 -64 -34 -18 -11 -33
-18 -33 -17 0 2 11 36 24 75 17 49 35 81 55 98 77 65 41 184 -62 203 -41 7
-52 6 -80 -13z"/>
<path d="M149 1601 c-77 -39 -95 -122 -42 -189 24 -30 33 -56 47 -142 10 -58
19 -109 20 -115 1 -5 11 -56 21 -113 l18 -103 292 -213 292 -213 59 8 c32 5
77 11 99 14 22 3 51 7 65 9 14 2 50 7 80 10 30 4 66 9 80 11 14 2 48 6 75 10
28 3 77 10 110 14 58 8 61 7 112 -28 33 -23 56 -47 63 -67 17 -49 53 -76 109
-82 45 -4 52 -2 87 31 34 30 38 40 38 80 0 25 -6 57 -13 71 -16 29 -67 56
-105 56 -17 0 -57 22 -107 59 -45 33 -89 58 -99 56 -9 -2 -41 -6 -71 -10 -30
-3 -61 -8 -69 -10 -8 -2 -42 -6 -75 -10 -33 -3 -71 -8 -85 -10 -28 -5 -54 -8
-180 -25 -47 -6 -95 -13 -107 -15 -15 -2 -79 39 -220 141 -109 80 -209 153
-222 162 -65 47 -63 44 -96 242 -2 14 -11 61 -18 104 -13 68 -13 84 -1 113 41
96 -66 201 -157 154z"/>
<path d="M2806 1105 c-33 -12 -76 -48 -76 -65 0 -3 -43 -21 -94 -40 l-95 -35
-42 -90 c-86 -184 -199 -421 -216 -454 -17 -33 -32 -40 -287 -138 -148 -56
-274 -103 -279 -103 -6 0 -86 32 -179 70 -142 60 -176 78 -211 114 -40 41 -45
44 -91 41 -43 -2 -54 -7 -83 -38 -41 -45 -45 -97 -10 -148 25 -38 85 -61 127
-49 25 7 52 -2 210 -73 25 -11 61 -25 80 -32 19 -7 61 -24 93 -39 l59 -26 325
125 c179 69 332 129 341 134 8 4 48 80 89 167 41 87 101 216 135 285 l60 126
62 22 c41 14 73 19 97 15 85 -14 158 63 137 146 -18 70 -85 108 -152 85z"/>
</g>
</svg>
