<?xml version="1.0" encoding="UTF-8"?>
<svg id="Layer_2" xmlns="http://www.w3.org/2000/svg" viewBox="0 0 345.11 360.26">
  <g id="icon">
    <g>
      <path d="M161.8,128.05c-2.74-6-9.82-8.65-15.82-5.91-6,2.74-8.65,9.82-5.91,15.82,1.47,3.22,4.2,5.47,7.34,6.44l8.31,18.23-16.16-4.18c-1.5-2.92-4.19-5.22-7.62-6.1-6.39-1.65-12.9,2.19-14.55,8.58-1.65,6.39,2.19,12.9,8.58,14.55,3.43.89,6.89.18,9.62-1.65l12.76,3.3-11.58,6.29c-3.09-1.11-6.62-.96-9.73.73-5.8,3.15-7.94,10.4-4.8,16.2,3.15,5.8,10.4,7.94,16.2,4.8,3.11-1.69,5.16-4.57,5.91-7.77l11.59-6.29-4.18,12.5c-3.02,1.3-5.5,3.81-6.62,7.17-2.09,6.26,1.28,13.02,7.54,15.12,6.26,2.09,13.02-1.28,15.12-7.54,1.12-3.36.66-6.86-.97-9.71l4.18-12.5,5.47,12c-1.32,3.01-1.42,6.54.05,9.76,2.74,6,9.82,8.65,15.82,5.91,6-2.74,8.65-9.82,5.91-15.82-1.47-3.22-4.2-5.47-7.33-6.44l-6.93-15.19,19.4,5.01c1.5,2.92,4.19,5.22,7.62,6.1,6.39,1.65,12.9-2.19,14.55-8.58,1.65-6.39-2.19-12.9-8.58-14.55-3.43-.89-6.89-.18-9.62,1.65l-16-4.14,14.52-7.89c3.09,1.11,6.62.96,9.73-.73,5.8-3.15,7.94-10.4,4.8-16.2-3.15-5.8-10.4-7.94-16.2-4.8-3.11,1.69-5.16,4.57-5.91,7.76l-14.52,7.89,5.24-15.67c3.02-1.3,5.5-3.81,6.62-7.17,2.09-6.26-1.28-13.02-7.54-15.12-6.26-2.09-13.02,1.28-15.12,7.54-1.12,3.36-.66,6.86.97,9.71l-5.24,15.67-6.85-15.03c1.32-3.01,1.42-6.54-.05-9.76Z"/>
      <path d="M48.99,228.06c-2.45,2.19-4,5.36-4,8.9,0,6.6,5.35,11.94,11.94,11.94s11.94-5.35,11.94-11.94c0-3.54-1.55-6.72-4-8.9v-20.21l-43.85-45.85v-59.4l27.24-28.48c3.28.11,6.6-1.11,9.05-3.67,4.56-4.77,4.39-12.33-.38-16.89-4.77-4.56-12.33-4.39-16.89.38-2.45,2.56-3.52,5.93-3.26,9.2L5.14,96.22v72.15l43.85,45.85v13.84Z"/>
      <path d="M47.52,106.03c-5.67,3.36-7.55,10.69-4.19,16.36,3.36,5.67,10.69,7.55,16.36,4.19,3.05-1.81,4.99-4.76,5.62-7.98l17.39-10.3,17.09-61.1,51.11-30.28,38.39,8.92c1.58,2.88,4.32,5.11,7.77,5.91,6.42,1.49,12.84-2.51,14.34-8.93,1.49-6.42-2.51-12.84-8.93-14.34-3.45-.8-6.89,0-9.58,1.88L148.3,0l-62.08,36.78-17.09,61.1-11.91,7.06c-3.13-.99-6.65-.71-9.7,1.1Z"/>
      <path d="M344.66,130.67c-.96-3.41-3.31-6.05-6.26-7.49l-12.39-44.08-62.12-36.7-61.77,14.43-11.92-7.04c-.64-3.22-2.58-6.17-5.63-7.97-5.68-3.36-13-1.47-16.36,4.21-3.36,5.68-1.47,13,4.21,16.36,3.05,1.8,6.57,2.08,9.7,1.08l17.4,10.28,61.77-14.43,51.15,30.22,10.66,37.94c-1.77,2.77-2.4,6.24-1.44,9.65,1.78,6.35,8.38,10.05,14.73,8.27,6.35-1.78,10.05-8.38,8.27-14.73Z"/>
      <path d="M295.04,129.98c2.46-2.17,4.04-5.33,4.06-8.88.04-6.6-5.27-11.98-11.87-12.02-6.6-.04-11.98,5.27-12.02,11.87-.02,3.54,1.51,6.73,3.95,8.93l-.13,20.21,43.56,46.13-.38,59.4-27.42,28.31c-3.28-.13-6.6,1.07-9.07,3.61-4.59,4.74-4.47,12.3.27,16.89,4.74,4.59,12.3,4.47,16.89-.27,2.46-2.54,3.56-5.9,3.32-9.18l31.85-32.88.46-72.15-43.56-46.12.09-13.84Z"/>
      <path d="M287.66,257.14c-2.37-6.16-9.28-9.23-15.43-6.86-3.31,1.27-5.71,3.86-6.87,6.93l-18.86,7.25-27.06,57.38-55.46,21.31-36.36-15.21c-1.07-3.1-3.4-5.76-6.67-7.13-6.08-2.55-13.08.32-15.63,6.41-2.55,6.08.32,13.08,6.41,15.63,3.27,1.37,6.79,1.16,9.76-.26l42.23,17.67,67.35-25.88,27.06-57.38,12.92-4.97c2.92,1.5,6.44,1.81,9.74.54,6.16-2.37,9.23-9.28,6.86-15.43Z"/>
      <path d="M146.18,308.78c.32,3.27,1.97,6.39,4.84,8.48,5.33,3.88,12.8,2.71,16.69-2.62,3.88-5.33,2.71-12.8-2.62-16.69-2.86-2.09-6.34-2.7-9.55-2.01l-16.33-11.9-62.88,8.44-48.01-34.98-6.97-38.79c2.02-2.59,2.99-5.98,2.36-9.47-1.17-6.49-7.38-10.81-13.87-9.64-6.49,1.17-10.81,7.38-9.64,13.87.63,3.49,2.72,6.33,5.51,8.05l8.1,45.06,58.31,42.49,62.88-8.44,11.18,8.15Z"/>
    </g>
  </g>
</svg>