<?xml version="1.0" encoding="UTF-8"?>
<svg id="Layer_2" xmlns="http://www.w3.org/2000/svg" viewBox="0 0 918.86 125.14">
  <g id="secondary_logo_-_expanded">
    <g>
      <g>
        <path d="M56.2,44.48c-.95-2.08-3.41-3-5.5-2.05-2.08.95-3,3.41-2.05,5.5.51,1.12,1.46,1.9,2.55,2.24l2.89,6.33-5.61-1.45c-.52-1.01-1.46-1.81-2.65-2.12-2.22-.57-4.48.76-5.06,2.98-.57,2.22.76,4.48,2.98,5.06,1.19.31,2.39.06,3.34-.57l4.43,1.15-4.02,2.19c-1.07-.38-2.3-.33-3.38.25-2.01,1.09-2.76,3.61-1.67,5.63,1.09,2.01,3.61,2.76,5.63,1.67,1.08-.59,1.79-1.59,2.05-2.7l4.02-2.19-1.45,4.34c-1.05.45-1.91,1.32-2.3,2.49-.73,2.17.45,4.52,2.62,5.25,2.17.73,4.52-.45,5.25-2.62.39-1.17.23-2.38-.34-3.37l1.45-4.34,1.9,4.17c-.46,1.04-.49,2.27.02,3.39.95,2.08,3.41,3,5.5,2.05,2.08-.95,3-3.41,2.05-5.5-.51-1.12-1.46-1.9-2.55-2.24l-2.41-5.28,6.74,1.74c.52,1.01,1.45,1.81,2.65,2.12,2.22.57,4.48-.76,5.06-2.98.57-2.22-.76-4.48-2.98-5.06-1.19-.31-2.39-.06-3.34.57l-5.56-1.44,5.04-2.74c1.07.39,2.3.33,3.38-.25,2.01-1.09,2.76-3.61,1.67-5.63-1.09-2.01-3.61-2.76-5.63-1.67-1.08.59-1.79,1.59-2.05,2.7l-5.04,2.74,1.82-5.44c1.05-.45,1.91-1.32,2.3-2.49.73-2.17-.45-4.52-2.62-5.25-2.17-.73-4.52.45-5.25,2.62-.39,1.17-.23,2.38.34,3.37l-1.82,5.44-2.38-5.22c.46-1.04.49-2.27-.02-3.39Z"/>
        <path d="M17.02,79.22c-.85.76-1.39,1.86-1.39,3.09,0,2.29,1.86,4.15,4.15,4.15s4.15-1.86,4.15-4.15c0-1.23-.54-2.33-1.39-3.09v-7.02l-15.23-15.93v-20.63l9.46-9.89c1.14.04,2.29-.38,3.14-1.27,1.58-1.66,1.53-4.28-.13-5.87-1.66-1.58-4.28-1.53-5.87.13-.85.89-1.22,2.06-1.13,3.2L1.78,33.42v25.06l15.23,15.93v4.81Z"/>
        <path d="M16.51,36.83c-1.97,1.17-2.62,3.71-1.45,5.68,1.17,1.97,3.71,2.62,5.68,1.45,1.06-.63,1.73-1.65,1.95-2.77l6.04-3.58,5.94-21.22,17.75-10.52,13.33,3.1c.55,1,1.5,1.78,2.7,2.05,2.23.52,4.46-.87,4.98-3.1.52-2.23-.87-4.46-3.1-4.98-1.2-.28-2.39,0-3.33.65l-15.49-3.6-21.56,12.78-5.94,21.22-4.14,2.45c-1.09-.34-2.31-.25-3.37.38Z"/>
        <path d="M119.72,45.39c-.33-1.18-1.15-2.1-2.18-2.6l-4.3-15.31-21.58-12.75-21.46,5.01-4.14-2.45c-.22-1.12-.9-2.14-1.96-2.77-1.97-1.17-4.52-.51-5.68,1.46-1.17,1.97-.51,4.52,1.46,5.68,1.06.63,2.28.72,3.37.38l6.05,3.57,21.46-5.01,17.77,10.5,3.7,13.18c-.61.96-.83,2.17-.5,3.35.62,2.21,2.91,3.49,5.12,2.87,2.21-.62,3.49-2.91,2.87-5.12Z"/>
        <path d="M102.49,45.15c.86-.75,1.4-1.85,1.41-3.08.01-2.29-1.83-4.16-4.12-4.18-2.29-.01-4.16,1.83-4.18,4.12,0,1.23.52,2.34,1.37,3.1l-.04,7.02,15.13,16.02-.13,20.63-9.52,9.83c-1.14-.05-2.29.37-3.15,1.25-1.59,1.65-1.55,4.27.09,5.87,1.65,1.59,4.27,1.55,5.87-.09.86-.88,1.24-2.05,1.15-3.19l11.06-11.42.16-25.06-15.13-16.02.03-4.81Z"/>
        <path d="M99.92,89.32c-.82-2.14-3.22-3.21-5.36-2.38-1.15.44-1.98,1.34-2.39,2.41l-6.55,2.52-9.4,19.93-19.26,7.4-12.63-5.28c-.37-1.08-1.18-2-2.32-2.48-2.11-.88-4.54.11-5.43,2.23-.88,2.11.11,4.54,2.23,5.43,1.14.47,2.36.4,3.39-.09l14.67,6.14,23.4-8.99,9.4-19.93,4.49-1.72c1.01.52,2.24.63,3.38.19,2.14-.82,3.21-3.22,2.38-5.36Z"/>
        <path d="M50.78,107.26c.11,1.14.69,2.22,1.68,2.95,1.85,1.35,4.45.94,5.8-.91,1.35-1.85.94-4.45-.91-5.8-.99-.72-2.2-.94-3.32-.7l-5.67-4.14-21.84,2.93-16.68-12.15-2.42-13.47c.7-.9,1.04-2.08.82-3.29-.41-2.26-2.56-3.75-4.82-3.35-2.25.41-3.75,2.56-3.35,4.82.22,1.21.94,2.2,1.92,2.8l2.81,15.65,20.26,14.76,21.84-2.93,3.88,2.83Z"/>
      </g>
      <g>
        <path d="M151.46,90.13v-57.53h29.6c4.14,0,7.7.61,10.68,1.82,2.98,1.21,5.27,3.04,6.87,5.5,1.6,2.45,2.39,5.57,2.39,9.35,0,2.6-.43,4.8-1.29,6.6-.86,1.8-2.02,3.29-3.5,4.48-1.48,1.18-3.22,2.1-5.23,2.75-2.01.65-4.17,1.06-6.47,1.24l-.62-.53c3.49.12,6.41.5,8.77,1.15,2.36.65,4.18,1.82,5.45,3.5,1.27,1.68,1.91,4.18,1.91,7.49v14.18h-8.6v-13.92c0-2.3-.39-4.11-1.15-5.41-.77-1.3-2.1-2.22-3.99-2.75-1.89-.53-4.55-.8-7.98-.8h-18.35v22.87h-8.51ZM159.97,59.82h21.1c3.78,0,6.63-.94,8.55-2.84,1.92-1.89,2.88-4.37,2.88-7.45s-.96-5.23-2.88-6.83c-1.92-1.59-4.77-2.39-8.55-2.39h-21.1v19.5Z"/>
        <path d="M232.47,91.11c-4.31,0-8.27-.92-11.88-2.75-3.6-1.83-6.47-4.46-8.6-7.89-2.13-3.43-3.19-7.53-3.19-12.32s1.06-9,3.19-12.45c2.13-3.46,4.99-6.1,8.6-7.93,3.6-1.83,7.56-2.75,11.88-2.75s8.24.92,11.79,2.75c3.55,1.83,6.38,4.48,8.51,7.93,2.13,3.46,3.19,7.61,3.19,12.45s-1.06,8.89-3.19,12.32c-2.13,3.43-4.96,6.06-8.51,7.89-3.55,1.83-7.48,2.75-11.79,2.75ZM232.47,83.75c2.66,0,5.13-.61,7.4-1.82,2.27-1.21,4.11-2.98,5.5-5.32,1.39-2.33,2.08-5.16,2.08-8.46s-.7-6.23-2.08-8.6c-1.39-2.36-3.22-4.17-5.5-5.41-2.28-1.24-4.74-1.86-7.4-1.86s-5.14.61-7.45,1.82-4.17,3-5.58,5.36c-1.42,2.36-2.13,5.26-2.13,8.69s.69,6.13,2.08,8.46c1.39,2.33,3.24,4.11,5.54,5.32,2.3,1.21,4.82,1.82,7.53,1.82Z"/>
        <path d="M261.99,75.78h7.8c.29,2.36,1.36,4.3,3.19,5.81,1.83,1.51,4.4,2.26,7.71,2.26,2.13,0,3.78-.25,4.96-.75,1.18-.5,2.02-1.2,2.53-2.08.5-.89.75-1.86.75-2.92,0-1.36-.35-2.41-1.06-3.15-.71-.74-1.71-1.36-3.01-1.86-1.3-.5-2.84-.99-4.61-1.46-1.95-.53-3.9-1.15-5.85-1.86-1.95-.71-3.74-1.56-5.36-2.57-1.63-1-2.92-2.26-3.9-3.77s-1.46-3.35-1.46-5.54c0-1.83.4-3.55,1.2-5.14s1.95-2.97,3.46-4.12,3.26-2.04,5.27-2.66c2.01-.62,4.22-.93,6.65-.93,3.37,0,6.2.61,8.51,1.82,2.3,1.21,4.06,2.91,5.27,5.1,1.21,2.19,1.85,4.7,1.91,7.53h-7.45c-.41-2.48-1.27-4.3-2.57-5.45-1.3-1.15-3.25-1.73-5.85-1.73s-4.49.5-5.85,1.51c-1.36,1-2.04,2.36-2.04,4.08,0,1.3.47,2.35,1.42,3.15.94.8,2.22,1.49,3.81,2.08,1.6.59,3.4,1.21,5.41,1.86,1.89.65,3.71,1.32,5.45,1.99,1.74.68,3.31,1.48,4.7,2.39,1.39.92,2.48,2.1,3.28,3.54.8,1.45,1.2,3.24,1.2,5.36,0,2.6-.65,4.86-1.95,6.78-1.3,1.92-3.18,3.41-5.63,4.48-2.45,1.06-5.42,1.59-8.91,1.59-3.19,0-5.89-.38-8.11-1.15-2.22-.77-4.08-1.77-5.58-3.01-1.51-1.24-2.66-2.56-3.46-3.94s-1.33-2.73-1.6-4.03c-.27-1.3-.34-2.36-.22-3.19Z"/>
        <path d="M339.63,75.78h8.07c-.47,2.9-1.6,5.5-3.37,7.8-1.77,2.3-4.11,4.14-7,5.5-2.9,1.36-6.29,2.04-10.19,2.04-4.61,0-8.72-.97-12.32-2.92-3.6-1.95-6.44-4.64-8.51-8.07-2.07-3.43-3.1-7.42-3.1-11.97s1-8.64,3.01-12.1c2.01-3.46,4.79-6.16,8.33-8.11,3.55-1.95,7.59-2.92,12.14-2.92,4.79,0,8.8.95,12.05,2.84,3.25,1.89,5.66,4.68,7.22,8.38,1.56,3.69,2.2,8.29,1.91,13.78h-36.25c.29,2.66,1.11,5.02,2.44,7.09s3.1,3.69,5.32,4.88c2.22,1.18,4.77,1.77,7.67,1.77,3.25,0,5.97-.74,8.15-2.22,2.19-1.48,3.66-3.4,4.43-5.76ZM326.78,52.29c-3.84,0-7.03,1.02-9.57,3.06-2.54,2.04-4.23,4.74-5.05,8.11h27.21c-.24-3.6-1.54-6.37-3.9-8.29-2.36-1.92-5.26-2.88-8.69-2.88Z"/>
        <path d="M430.83,70.46c-.53,4.31-1.99,8.01-4.39,11.08-2.39,3.07-5.51,5.44-9.35,7.09-3.84,1.65-8.21,2.48-13.12,2.48-4.43,0-8.5-.68-12.19-2.04-3.69-1.36-6.9-3.31-9.62-5.85-2.72-2.54-4.85-5.66-6.38-9.35-1.54-3.69-2.3-7.84-2.3-12.45s.77-8.83,2.3-12.5c1.54-3.66,3.66-6.78,6.38-9.35,2.72-2.57,5.92-4.53,9.62-5.89,3.69-1.36,7.76-2.04,12.19-2.04,4.96,0,9.36.84,13.21,2.53,3.84,1.68,6.96,4.08,9.35,7.18,2.39,3.1,3.86,6.81,4.39,11.12h-8.15c-.77-2.78-2.04-5.14-3.81-7.09s-3.93-3.44-6.47-4.48c-2.54-1.03-5.38-1.55-8.51-1.55-4.02,0-7.68.86-10.99,2.57-3.31,1.71-5.95,4.2-7.93,7.45-1.98,3.25-2.97,7.27-2.97,12.05s.99,8.73,2.97,12.01c1.98,3.28,4.62,5.76,7.93,7.45,3.31,1.68,6.97,2.53,10.99,2.53,3.13,0,5.95-.5,8.47-1.51,2.51-1,4.65-2.48,6.43-4.43s3.07-4.28,3.9-7h8.07Z"/>
        <path d="M450.33,27.65v9.13h-10.55v-9.13h10.55ZM440.85,45.9h8.42v44.23h-8.42v-44.23Z"/>
        <path d="M457.25,45.9h28.63v7.36h-28.63v-7.36ZM467.35,34.2h8.42v55.93h-8.42v-55.93Z"/>
        <path d="M489.07,45.9h9.04l16.93,42.46-7.36,1.77-18.61-44.23ZM534.18,45.9l-26.5,61.96h-8.95l11.43-24.02,15.07-37.94h8.95Z"/>
        <path d="M560.6,90.13v-57.53h29.6c4.14,0,7.7.61,10.68,1.82,2.98,1.21,5.27,3.04,6.87,5.5,1.59,2.45,2.39,5.57,2.39,9.35,0,2.6-.43,4.8-1.29,6.6-.86,1.8-2.02,3.29-3.5,4.48-1.48,1.18-3.22,2.1-5.23,2.75-2.01.65-4.17,1.06-6.47,1.24l-.62-.53c3.49.12,6.41.5,8.78,1.15,2.36.65,4.18,1.82,5.45,3.5,1.27,1.68,1.91,4.18,1.91,7.49v14.18h-8.6v-13.92c0-2.3-.38-4.11-1.15-5.41-.77-1.3-2.1-2.22-3.99-2.75-1.89-.53-4.55-.8-7.98-.8h-18.35v22.87h-8.51ZM569.11,59.82h21.09c3.78,0,6.63-.94,8.55-2.84,1.92-1.89,2.88-4.37,2.88-7.45s-.96-5.23-2.88-6.83c-1.92-1.59-4.77-2.39-8.55-2.39h-21.09v19.5Z"/>
        <path d="M641.61,91.11c-4.31,0-8.27-.92-11.88-2.75-3.61-1.83-6.47-4.46-8.6-7.89-2.13-3.43-3.19-7.53-3.19-12.32s1.06-9,3.19-12.45c2.13-3.46,4.99-6.1,8.6-7.93,3.6-1.83,7.56-2.75,11.88-2.75s8.24.92,11.79,2.75c3.54,1.83,6.38,4.48,8.51,7.93s3.19,7.61,3.19,12.45-1.06,8.89-3.19,12.32c-2.13,3.43-4.96,6.06-8.51,7.89-3.55,1.83-7.48,2.75-11.79,2.75ZM641.61,83.75c2.66,0,5.13-.61,7.4-1.82,2.27-1.21,4.11-2.98,5.5-5.32,1.39-2.33,2.08-5.16,2.08-8.46s-.7-6.23-2.08-8.6c-1.39-2.36-3.22-4.17-5.5-5.41-2.28-1.24-4.74-1.86-7.4-1.86s-5.14.61-7.45,1.82-4.17,3-5.58,5.36c-1.42,2.36-2.13,5.26-2.13,8.69s.69,6.13,2.08,8.46c1.39,2.33,3.23,4.11,5.54,5.32,2.3,1.21,4.82,1.82,7.53,1.82Z"/>
        <path d="M683,28.18v52.3c0,1.36-.08,2.98-.22,4.88-.15,1.89-.28,3.49-.4,4.79h-7.8V28.18h8.42ZM699.84,91.02c-3.49,0-6.37-.72-8.64-2.17-2.28-1.45-4.08-3.35-5.41-5.72-1.33-2.36-2.29-4.88-2.88-7.53-.59-2.66-.89-5.17-.89-7.53,0-3.19.28-6.17.84-8.95.56-2.78,1.49-5.23,2.79-7.36,1.3-2.13,3.1-3.78,5.41-4.96,2.3-1.18,5.23-1.77,8.78-1.77,3.96,0,7.49.99,10.59,2.97,3.1,1.98,5.54,4.7,7.31,8.15s2.66,7.43,2.66,11.92-.92,8.46-2.75,11.92c-1.83,3.46-4.3,6.16-7.4,8.11-3.1,1.95-6.58,2.93-10.42,2.93ZM697.45,83.66c2.84,0,5.33-.66,7.49-1.99,2.16-1.33,3.84-3.16,5.05-5.5,1.21-2.33,1.82-5.04,1.82-8.11,0-4.55-1.26-8.3-3.77-11.26-2.51-2.95-6.04-4.43-10.59-4.43-3.07,0-5.69.65-7.84,1.95-2.16,1.3-3.8,3.13-4.92,5.5-1.12,2.36-1.68,5.11-1.68,8.24,0,2.9.54,5.53,1.64,7.89,1.09,2.36,2.72,4.24,4.88,5.63,2.16,1.39,4.8,2.08,7.93,2.08Z"/>
        <path d="M749.65,91.11c-4.31,0-8.27-.92-11.88-2.75-3.61-1.83-6.47-4.46-8.6-7.89-2.13-3.43-3.19-7.53-3.19-12.32s1.06-9,3.19-12.45c2.13-3.46,4.99-6.1,8.6-7.93,3.6-1.83,7.56-2.75,11.88-2.75s8.24.92,11.79,2.75c3.54,1.83,6.38,4.48,8.51,7.93s3.19,7.61,3.19,12.45-1.06,8.89-3.19,12.32c-2.13,3.43-4.96,6.06-8.51,7.89-3.55,1.83-7.48,2.75-11.79,2.75ZM749.65,83.75c2.66,0,5.13-.61,7.4-1.82,2.27-1.21,4.11-2.98,5.5-5.32,1.39-2.33,2.08-5.16,2.08-8.46s-.7-6.23-2.08-8.6c-1.39-2.36-3.22-4.17-5.5-5.41-2.28-1.24-4.74-1.86-7.4-1.86s-5.14.61-7.45,1.82-4.17,3-5.58,5.36c-1.42,2.36-2.13,5.26-2.13,8.69s.69,6.13,2.08,8.46c1.39,2.33,3.23,4.11,5.54,5.32,2.3,1.21,4.82,1.82,7.53,1.82Z"/>
        <path d="M778.02,45.9h28.63v7.36h-28.63v-7.36ZM788.12,34.2h8.42v55.93h-8.42v-55.93Z"/>
        <path d="M824.02,27.65v9.13h-10.55v-9.13h10.55ZM814.54,45.9h8.42v44.23h-8.42v-44.23Z"/>
        <path d="M877.38,73.29c-.35,3.66-1.52,6.84-3.5,9.53-1.98,2.69-4.56,4.74-7.75,6.16-3.19,1.42-6.74,2.13-10.64,2.13-4.31,0-8.27-.9-11.88-2.7-3.61-1.8-6.49-4.43-8.64-7.89-2.16-3.46-3.24-7.58-3.24-12.36s1.08-9,3.24-12.45c2.16-3.46,5.04-6.1,8.64-7.93,3.6-1.83,7.56-2.75,11.88-2.75,3.9,0,7.42.71,10.55,2.13,3.13,1.42,5.7,3.44,7.71,6.07,2.01,2.63,3.22,5.78,3.63,9.44h-7.71c-1-3.19-2.79-5.72-5.36-7.58s-5.51-2.79-8.82-2.79c-2.72,0-5.25.62-7.58,1.86-2.33,1.24-4.2,3.03-5.58,5.36-1.39,2.33-2.08,5.22-2.08,8.64s.69,6.13,2.08,8.46c1.39,2.33,3.23,4.11,5.54,5.32,2.3,1.21,4.84,1.82,7.62,1.82,3.78,0,6.85-.92,9.22-2.75,2.36-1.83,4.05-4.4,5.05-7.71h7.62Z"/>
        <path d="M883.4,75.78h7.8c.29,2.36,1.36,4.3,3.19,5.81,1.83,1.51,4.4,2.26,7.71,2.26,2.13,0,3.78-.25,4.96-.75,1.18-.5,2.02-1.2,2.53-2.08.5-.89.75-1.86.75-2.92,0-1.36-.36-2.41-1.06-3.15-.71-.74-1.71-1.36-3.01-1.86-1.3-.5-2.84-.99-4.61-1.46-1.95-.53-3.9-1.15-5.85-1.86s-3.74-1.56-5.36-2.57c-1.63-1-2.92-2.26-3.9-3.77-.97-1.51-1.46-3.35-1.46-5.54,0-1.83.4-3.55,1.2-5.14.8-1.6,1.95-2.97,3.46-4.12s3.26-2.04,5.27-2.66c2.01-.62,4.22-.93,6.65-.93,3.37,0,6.2.61,8.51,1.82,2.3,1.21,4.06,2.91,5.27,5.1,1.21,2.19,1.85,4.7,1.91,7.53h-7.45c-.41-2.48-1.27-4.3-2.57-5.45-1.3-1.15-3.25-1.73-5.85-1.73s-4.49.5-5.85,1.51c-1.36,1-2.04,2.36-2.04,4.08,0,1.3.47,2.35,1.42,3.15s2.22,1.49,3.81,2.08c1.6.59,3.4,1.21,5.41,1.86,1.89.65,3.71,1.32,5.45,1.99,1.74.68,3.31,1.48,4.7,2.39,1.39.92,2.48,2.1,3.28,3.54.8,1.45,1.2,3.24,1.2,5.36,0,2.6-.65,4.86-1.95,6.78-1.3,1.92-3.18,3.41-5.63,4.48-2.45,1.06-5.42,1.59-8.91,1.59-3.19,0-5.89-.38-8.11-1.15-2.22-.77-4.08-1.77-5.58-3.01-1.51-1.24-2.66-2.56-3.46-3.94s-1.33-2.73-1.6-4.03c-.27-1.3-.34-2.36-.22-3.19Z"/>
      </g>
    </g>
  </g>
</svg>